<svg xmlns="http://www.w3.org/2000/svg" viewBox="0 0 2299.5 1398.99"><defs><style>.cls-1{fill:#efa687;}.cls-2{fill:#d17150;}.cls-3{fill:#21353a;}.cls-4{fill:#bf806a;}.cls-5{fill:#304349;}.cls-6{fill:#dcf2f9;}.cls-7,.cls-8{fill:#6cd0f9;}.cls-7,.cls-9{opacity:0.6;}.cls-10,.cls-17,.cls-18,.cls-20,.cls-9{fill:#fff;}.cls-11{fill:#29d39e;}.cls-12{fill:#45f4ba;}.cls-13{fill:#0faa77;}.cls-14{fill:#cdff5f;}.cls-15{fill:#bfce2c;}.cls-16{fill:#d1ea3d;}.cls-17,.cls-25{opacity:0.4;}.cls-18{opacity:0.3;}.cls-19{fill:#e4e9f2;}.cls-20{opacity:0.5;}.cls-21{fill:#bcc7d8;}.cls-22{fill:#f3fc9d;}.cls-23{fill:#839d2d;}.cls-24{fill:#b57f76;}.cls-25{fill:#544630;}</style></defs><title>Asset 26</title><g id="Layer_2" data-name="Layer 2"><g id="Layer_1-2" data-name="Layer 1"><path class="cls-1" d="M169,877v130a11.44,11.44,0,0,0,15.14,10.83l45-15.36a28.65,28.65,0,0,1,33.8,12.31h0A199,199,0,0,0,433.38,1111H2065.94a159.47,159.47,0,0,0,112.77-46.71h0c12.47-12.47,3.64-33.79-14-33.79h0a19.79,19.79,0,0,1-16.54-30.67L2229,877"/><path class="cls-2" d="M2183.55,1050.43a19.39,19.39,0,0,1-5.84,13.86A159.47,159.47,0,0,1,2064.94,1111H432.38a199.1,199.1,0,0,1-170.44-96.22,28.65,28.65,0,0,0-33.8-12.31l-45,15.36A11.44,11.44,0,0,1,168,1007V984a11.44,11.44,0,0,0,15.14,10.83l45-15.36a28.65,28.65,0,0,1,33.8,12.31A199.1,199.1,0,0,0,432.38,1088H2064.94a159.47,159.47,0,0,0,112.77-46.71,19.74,19.74,0,0,0,2.13-2.5A20.26,20.26,0,0,1,2183.55,1050.43Z"/><polygon class="cls-2" points="2229 883 2209.26 899 169 899 169 883 2229 883"/><path class="cls-3" d="M2065.94,1118H440.53a215.73,215.73,0,0,1-184.71-104.27,15.89,15.89,0,0,0-18.63-6.79l-40.71,13.9A23.79,23.79,0,0,1,165,998.33V880a4,4,0,0,1,8,0V998.33a15.8,15.8,0,0,0,20.9,14.94l40.71-13.9a23.94,23.94,0,0,1,28.06,10.22A207.7,207.7,0,0,0,440.53,1110H2065.94a154.44,154.44,0,0,0,109.94-45.54,15.79,15.79,0,0,0-11.16-27,23.79,23.79,0,0,1-19.88-36.87l80.82-122.83a4,4,0,1,1,6.68,4.4L2151.52,1005a15.8,15.8,0,0,0,13.2,24.47,23.79,23.79,0,0,1,16.82,40.62A162.44,162.44,0,0,1,2065.94,1118Z"/><polygon class="cls-4" points="648.51 1046.99 651.57 1082.24 725.12 1028.61 783.35 1073.04 844.65 971.91 780.29 1027.07 743.51 1013.28 722.06 1004.09 648.51 1046.99"/><polygon class="cls-4" points="2034.12 1036.99 2031.05 1072.24 1957.5 1018.61 1899.27 1063.04 1837.97 961.91 1902.33 1017.07 1939.11 1003.28 1960.56 994.09 2034.12 1036.99"/><path class="cls-3" d="M2035.64,1036.4a3.9,3.9,0,0,1-1.72-.4l-75.06-36-55.75,21.68L1835.41,965a4,4,0,0,1,5.13-6.14l64.08,53.65,54.58-21.23,78.18,37.53a4,4,0,0,1-1.74,7.61Z"/><polygon class="cls-4" points="1376.91 960.51 1394.64 991.12 1303.63 989.45 1281.47 1059.27 1173.22 1011.66 1257.58 1019.87 1279.77 987.46 1292.06 967.62 1376.91 960.51"/><path class="cls-3" d="M647,1046.4a4,4,0,0,1-1.74-7.61l78.18-37.53L778,1022.49l64.08-53.65a4,4,0,0,1,5.13,6.14l-67.7,56.68L723.76,1010l-75.06,36A3.9,3.9,0,0,1,647,1046.4Z"/><path class="cls-3" d="M1260.85,1023.18l-88-7.53a4,4,0,1,1,.68-8l83.26,7.12,32.5-48.71,85.56-14.17a4,4,0,0,1,1.3,7.89l-82.13,13.6Z"/><path class="cls-3" d="M385.45,1049.45h-.05a4,4,0,0,1-3.95-4l1.05-87-60.95,13.37L322,916a4,4,0,0,1,4-4h0a4,4,0,0,1,4,4l-.37,45.79,61-13.38-1.18,97A4,4,0,0,1,385.45,1049.45Z"/><path class="cls-5" d="M500.25,393.35a2,2,0,0,1-2-2V359.17a2,2,0,0,1,4,0v32.18A2,2,0,0,1,500.25,393.35Z"/><path class="cls-5" d="M516.34,377.26H484.16a2,2,0,0,1,0-4h32.18a2,2,0,0,1,0,4Z"/><circle class="cls-6" cx="667.5" cy="535.5" r="91.5"/><circle class="cls-6" cx="1034.5" cy="308.5" r="91.5"/><circle class="cls-6" cx="436.5" cy="560.5" r="91.5"/><rect class="cls-7" x="963.08" y="510" width="203.07" height="310"/><rect class="cls-8" x="963" y="769" width="203.07" height="46.68"/><rect class="cls-7" x="963.08" y="752" width="203.07" height="26.12"/><rect class="cls-9" x="973.08" y="509" width="203.07" height="13"/><path class="cls-3" d="M1170.15,824H959.08V506h211.07Zm-203.07-8h195.07V514H967.08Z"/><ellipse class="cls-10" cx="1013.85" cy="591.49" rx="2.16" ry="9.72"/><ellipse class="cls-10" cx="1000.89" cy="611.15" rx="2.16" ry="9.72"/><ellipse class="cls-10" cx="1013.85" cy="630.81" rx="2.16" ry="9.72"/><ellipse class="cls-10" cx="1000.89" cy="650.46" rx="2.16" ry="9.72"/><ellipse class="cls-10" cx="1000.89" cy="571.83" rx="2.16" ry="9.72"/><ellipse class="cls-10" cx="1013.85" cy="552.17" rx="2.16" ry="9.72"/><ellipse class="cls-10" cx="1034.37" cy="730.83" rx="2.16" ry="9.72"/><ellipse class="cls-10" cx="1021.41" cy="750.49" rx="2.16" ry="9.72"/><ellipse class="cls-10" cx="1034.37" cy="770.14" rx="2.16" ry="9.72"/><ellipse class="cls-10" cx="1021.41" cy="789.8" rx="2.16" ry="9.72"/><ellipse class="cls-10" cx="1021.41" cy="711.17" rx="2.16" ry="9.72"/><ellipse class="cls-10" cx="1034.37" cy="691.51" rx="2.16" ry="9.72"/><ellipse class="cls-10" cx="1074.34" cy="629.29" rx="2.16" ry="9.72"/><ellipse class="cls-10" cx="1061.38" cy="648.95" rx="2.16" ry="9.72"/><ellipse class="cls-10" cx="1074.34" cy="668.61" rx="2.16" ry="9.72"/><ellipse class="cls-10" cx="1061.38" cy="688.27" rx="2.16" ry="9.72"/><ellipse class="cls-10" cx="1061.38" cy="609.64" rx="2.16" ry="9.72"/><ellipse class="cls-10" cx="1074.34" cy="589.98" rx="2.16" ry="9.72"/><ellipse class="cls-10" cx="940.34" cy="1296.29" rx="2.16" ry="9.72"/><ellipse class="cls-10" cx="927.38" cy="1315.95" rx="2.16" ry="9.72"/><ellipse class="cls-10" cx="940.34" cy="1335.61" rx="2.16" ry="9.72"/><ellipse class="cls-10" cx="927.38" cy="1355.27" rx="2.16" ry="9.72"/><ellipse class="cls-10" cx="927.38" cy="1276.64" rx="2.16" ry="9.72"/><ellipse class="cls-10" cx="940.34" cy="1256.98" rx="2.16" ry="9.72"/><path class="cls-11" d="M879,337h0a94,94,0,0,1,94,94V829a0,0,0,0,1,0,0H785a0,0,0,0,1,0,0V431A94,94,0,0,1,879,337Z"/><path class="cls-12" d="M891,337.34A94,94,0,0,0,805,431V829H789V431a94,94,0,0,1,94-94Q887.05,337,891,337.34Z"/><path class="cls-13" d="M975,431V829H949V431a94,94,0,0,0-81-93.1A94,94,0,0,1,975,431Z"/><path class="cls-3" d="M979,833H783V431a98,98,0,0,1,196,0v76.67a4,4,0,1,1-8,0V431a90,90,0,0,0-180,0V825H971V586.33a4,4,0,1,1,8,0Z"/><path class="cls-3" d="M975,576a4,4,0,0,1-4-4v-5a4,4,0,0,1,8,0v5A4,4,0,0,1,975,576Z"/><path class="cls-3" d="M975,555.33a4,4,0,0,1-4-4V527.67a4,4,0,0,1,8,0v23.66A4,4,0,0,1,975,555.33Z"/><path class="cls-14" d="M918,679.5h-7a15,15,0,0,0-15,15h0a21,21,0,0,0,21,21h0a21,21,0,0,0,21-21v-15"/><path class="cls-15" d="M938,686v5a21,21,0,1,1-42,0,14.73,14.73,0,0,1,.18-2.32A21,21,0,0,0,938,686Z"/><path class="cls-3" d="M917,716.5A23.52,23.52,0,0,1,893.5,693,17.52,17.52,0,0,1,911,675.5h7a2.5,2.5,0,0,1,0,5h-7A12.52,12.52,0,0,0,898.5,693a18.5,18.5,0,0,0,37,0V678a2.5,2.5,0,0,1,5,0v15A23.52,23.52,0,0,1,917,716.5Z"/><path class="cls-16" d="M841,443h-7a15,15,0,0,0-15,15h0a21,21,0,0,0,21,21h0a21,21,0,0,0,21-21V443"/><path class="cls-15" d="M861,451v5a21,21,0,1,1-42,0,14.73,14.73,0,0,1,.18-2.32A21,21,0,0,0,861,451Z"/><path class="cls-16" d="M918,443h-7a15,15,0,0,0-15,15h0a21,21,0,0,0,21,21h0a21,21,0,0,0,21-21V443"/><path class="cls-15" d="M938,451v5a21,21,0,1,1-42,0,14.73,14.73,0,0,1,.18-2.32A21,21,0,0,0,938,451Z"/><path class="cls-16" d="M918,560h-7a15,15,0,0,0-15,15h0a21,21,0,0,0,21,21h0a21,21,0,0,0,21-21V560"/><path class="cls-15" d="M938,568v5a21,21,0,1,1-42,0,14.73,14.73,0,0,1,.18-2.32A21,21,0,0,0,938,568Z"/><path class="cls-16" d="M874,501h-7a15,15,0,0,0-15,15h0a21,21,0,0,0,21,21h0a21,21,0,0,0,21-21V501"/><path class="cls-15" d="M894,509v5a21,21,0,1,1-42,0,14.73,14.73,0,0,1,.18-2.32A21,21,0,0,0,894,509Z"/><path class="cls-3" d="M840,481.5A23.52,23.52,0,0,1,816.5,458,17.52,17.52,0,0,1,834,440.5h7a2.5,2.5,0,0,1,0,5h-7A12.52,12.52,0,0,0,821.5,458a18.5,18.5,0,0,0,37,0V443a2.5,2.5,0,0,1,5,0v15A23.52,23.52,0,0,1,840,481.5Z"/><path class="cls-3" d="M917,481.5A23.52,23.52,0,0,1,893.5,458,17.52,17.52,0,0,1,911,440.5h7a2.5,2.5,0,0,1,0,5h-7A12.52,12.52,0,0,0,898.5,458a18.5,18.5,0,0,0,37,0V443a2.5,2.5,0,0,1,5,0v15A23.52,23.52,0,0,1,917,481.5Z"/><path class="cls-3" d="M917,598.5A23.52,23.52,0,0,1,893.5,575,17.52,17.52,0,0,1,911,557.5h7a2.5,2.5,0,0,1,0,5h-7A12.52,12.52,0,0,0,898.5,575a18.5,18.5,0,0,0,37,0V560a2.5,2.5,0,0,1,5,0v15A23.52,23.52,0,0,1,917,598.5Z"/><path class="cls-3" d="M873,539.5A23.52,23.52,0,0,1,849.5,516,17.52,17.52,0,0,1,867,498.5h7a2.5,2.5,0,0,1,0,5h-7A12.52,12.52,0,0,0,854.5,516a18.5,18.5,0,0,0,37,0V501a2.5,2.5,0,0,1,5,0v15A23.52,23.52,0,0,1,873,539.5Z"/><path class="cls-16" d="M841,562h-7a15,15,0,0,0-15,15h0a21,21,0,0,0,21,21h0a21,21,0,0,0,21-21V562"/><path class="cls-15" d="M861,570v5a21,21,0,1,1-42,0,14.73,14.73,0,0,1,.18-2.32A21,21,0,0,0,861,570Z"/><path class="cls-5" d="M840,601a24,24,0,0,1-24-24,18,18,0,0,1,18-18h7a3,3,0,0,1,0,6h-7a12,12,0,0,0-12,12,18,18,0,0,0,36,0V562a3,3,0,0,1,6,0v15A24,24,0,0,1,840,601Z"/><path class="cls-16" d="M874,620h-7a15,15,0,0,0-15,15h0a21,21,0,0,0,21,21h0a21,21,0,0,0,21-21V620"/><path class="cls-15" d="M894,628v5a21,21,0,1,1-42,0,14.73,14.73,0,0,1,.18-2.32A21,21,0,0,0,894,628Z"/><path class="cls-5" d="M873,659a24,24,0,0,1-24-24,18,18,0,0,1,18-18h7a3,3,0,0,1,0,6h-7a12,12,0,0,0-12,12,18,18,0,0,0,36,0V620a3,3,0,0,1,6,0v15A24,24,0,0,1,873,659Z"/><path class="cls-14" d="M841,679.5h-7a15,15,0,0,0-15,15h0a21,21,0,0,0,21,21h0a21,21,0,0,0,21-21v-15"/><path class="cls-15" d="M861,689v5a21,21,0,1,1-42,0,14.73,14.73,0,0,1,.18-2.32A21,21,0,0,0,861,689Z"/><path class="cls-5" d="M840,720a24,24,0,0,1-24-24,18,18,0,0,1,18-18h7a3,3,0,0,1,0,6h-7a12,12,0,0,0-12,12,18,18,0,0,0,36,0V681a3,3,0,0,1,6,0v15A24,24,0,0,1,840,720Z"/><path class="cls-14" d="M874,739h-7a15,15,0,0,0-15,15h0a21,21,0,0,0,21,21h0a21,21,0,0,0,21-21V739"/><path class="cls-15" d="M894,747v5a21,21,0,1,1-42,0,14.73,14.73,0,0,1,.18-2.32A21,21,0,0,0,894,747Z"/><path class="cls-3" d="M873,777.5A23.52,23.52,0,0,1,849.5,754,17.52,17.52,0,0,1,867,736.5h7a2.5,2.5,0,0,1,0,5h-7A12.52,12.52,0,0,0,854.5,754a18.5,18.5,0,0,0,37,0V739a2.5,2.5,0,0,1,5,0v15A23.52,23.52,0,0,1,873,777.5Z"/><path class="cls-11" d="M1254,337h0a94,94,0,0,1,94,94V829a0,0,0,0,1,0,0H1160a0,0,0,0,1,0,0V431a94,94,0,0,1,94-94Z"/><path class="cls-12" d="M1268,337.34A94,94,0,0,0,1182,431V829h-16V431a94,94,0,0,1,94-94Q1264.05,337,1268,337.34Z"/><path class="cls-13" d="M1350,431V829h-26V431a94,94,0,0,0-81-93.1A94,94,0,0,1,1350,431Z"/><path class="cls-3" d="M1354,833H1158V431a98,98,0,0,1,196,0Zm-188-8h180V431a90,90,0,0,0-180,0Z"/><path class="cls-14" d="M1293,679.5h-7a15,15,0,0,0-15,15h0a21,21,0,0,0,21,21h0a21,21,0,0,0,21-21v-15"/><path class="cls-15" d="M1313,686v5a21,21,0,1,1-42,0,14.73,14.73,0,0,1,.18-2.32A21,21,0,0,0,1313,686Z"/><path class="cls-3" d="M1292,716.5a23.52,23.52,0,0,1-23.5-23.5,17.52,17.52,0,0,1,17.5-17.5h7a2.5,2.5,0,0,1,0,5h-7a12.52,12.52,0,0,0-12.5,12.5,18.5,18.5,0,0,0,37,0V678a2.5,2.5,0,0,1,5,0v15A23.52,23.52,0,0,1,1292,716.5Z"/><path class="cls-16" d="M1216,443h-7a15,15,0,0,0-15,15h0a21,21,0,0,0,21,21h0a21,21,0,0,0,21-21V443"/><path class="cls-15" d="M1236,451v5a21,21,0,1,1-42,0,14.73,14.73,0,0,1,.18-2.32A21,21,0,0,0,1236,451Z"/><path class="cls-3" d="M1215,481.5a23.52,23.52,0,0,1-23.5-23.5,17.52,17.52,0,0,1,17.5-17.5h7a2.5,2.5,0,0,1,0,5h-7a12.52,12.52,0,0,0-12.5,12.5,18.5,18.5,0,0,0,37,0V443a2.5,2.5,0,0,1,5,0v15A23.52,23.52,0,0,1,1215,481.5Z"/><path class="cls-16" d="M1293,443h-7a15,15,0,0,0-15,15h0a21,21,0,0,0,21,21h0a21,21,0,0,0,21-21V443"/><path class="cls-15" d="M1313,451v5a21,21,0,1,1-42,0,14.73,14.73,0,0,1,.18-2.32A21,21,0,0,0,1313,451Z"/><path class="cls-3" d="M1292,481.5a23.52,23.52,0,0,1-23.5-23.5,17.52,17.52,0,0,1,17.5-17.5h7a2.5,2.5,0,0,1,0,5h-7a12.52,12.52,0,0,0-12.5,12.5,18.5,18.5,0,0,0,37,0V443a2.5,2.5,0,0,1,5,0v15A23.52,23.52,0,0,1,1292,481.5Z"/><path class="cls-16" d="M1293,560h-7a15,15,0,0,0-15,15h0a21,21,0,0,0,21,21h0a21,21,0,0,0,21-21V560"/><path class="cls-15" d="M1313,568v5a21,21,0,1,1-42,0,14.73,14.73,0,0,1,.18-2.32A21,21,0,0,0,1313,568Z"/><path class="cls-3" d="M1292,598.5a23.52,23.52,0,0,1-23.5-23.5,17.52,17.52,0,0,1,17.5-17.5h7a2.5,2.5,0,0,1,0,5h-7a12.52,12.52,0,0,0-12.5,12.5,18.5,18.5,0,0,0,37,0V560a2.5,2.5,0,0,1,5,0v15A23.52,23.52,0,0,1,1292,598.5Z"/><path class="cls-16" d="M1249,501h-7a15,15,0,0,0-15,15h0a21,21,0,0,0,21,21h0a21,21,0,0,0,21-21V501"/><path class="cls-15" d="M1269,509v5a21,21,0,1,1-42,0,14.73,14.73,0,0,1,.18-2.32A21,21,0,0,0,1269,509Z"/><path class="cls-3" d="M1248,539.5a23.52,23.52,0,0,1-23.5-23.5,17.52,17.52,0,0,1,17.5-17.5h7a2.5,2.5,0,0,1,0,5h-7a12.52,12.52,0,0,0-12.5,12.5,18.5,18.5,0,0,0,37,0V501a2.5,2.5,0,0,1,5,0v15A23.52,23.52,0,0,1,1248,539.5Z"/><path class="cls-16" d="M1216,562h-7a15,15,0,0,0-15,15h0a21,21,0,0,0,21,21h0a21,21,0,0,0,21-21V562"/><path class="cls-15" d="M1236,570v5a21,21,0,1,1-42,0,14.73,14.73,0,0,1,.18-2.32A21,21,0,0,0,1236,570Z"/><path class="cls-3" d="M1215,600.5a23.52,23.52,0,0,1-23.5-23.5,17.52,17.52,0,0,1,17.5-17.5h7a2.5,2.5,0,0,1,0,5h-7a12.52,12.52,0,0,0-12.5,12.5,18.5,18.5,0,0,0,37,0V562a2.5,2.5,0,0,1,5,0v15A23.52,23.52,0,0,1,1215,600.5Z"/><path class="cls-16" d="M1249,620h-7a15,15,0,0,0-15,15h0a21,21,0,0,0,21,21h0a21,21,0,0,0,21-21V620"/><path class="cls-15" d="M1269,628v5a21,21,0,1,1-42,0,14.73,14.73,0,0,1,.18-2.32A21,21,0,0,0,1269,628Z"/><path class="cls-3" d="M1248,658.5a23.52,23.52,0,0,1-23.5-23.5,17.52,17.52,0,0,1,17.5-17.5h7a2.5,2.5,0,0,1,0,5h-7a12.52,12.52,0,0,0-12.5,12.5,18.5,18.5,0,0,0,37,0V620a2.5,2.5,0,0,1,5,0v15A23.52,23.52,0,0,1,1248,658.5Z"/><path class="cls-14" d="M1216,679.5h-7a15,15,0,0,0-15,15h0a21,21,0,0,0,21,21h0a21,21,0,0,0,21-21v-15"/><path class="cls-15" d="M1236,689v5a21,21,0,1,1-42,0,14.73,14.73,0,0,1,.18-2.32A21,21,0,0,0,1236,689Z"/><path class="cls-3" d="M1215,719.5a23.52,23.52,0,0,1-23.5-23.5,17.52,17.52,0,0,1,17.5-17.5h7a2.5,2.5,0,0,1,0,5h-7a12.52,12.52,0,0,0-12.5,12.5,18.5,18.5,0,0,0,37,0V681a2.5,2.5,0,0,1,5,0v15A23.52,23.52,0,0,1,1215,719.5Z"/><path class="cls-14" d="M1249,739h-7a15,15,0,0,0-15,15h0a21,21,0,0,0,21,21h0a21,21,0,0,0,21-21V739"/><path class="cls-15" d="M1269,747v5a21,21,0,1,1-42,0,14.73,14.73,0,0,1,.18-2.32A21,21,0,0,0,1269,747Z"/><path class="cls-3" d="M1248,777.5a23.52,23.52,0,0,1-23.5-23.5,17.52,17.52,0,0,1,17.5-17.5h7a2.5,2.5,0,0,1,0,5h-7a12.52,12.52,0,0,0-12.5,12.5,18.5,18.5,0,0,0,37,0V739a2.5,2.5,0,0,1,5,0v15A23.52,23.52,0,0,1,1248,777.5Z"/><rect class="cls-17" y="505" width="929" height="312" rx="156"/><circle class="cls-6" cx="939" cy="45" r="45"/><circle class="cls-6" cx="2202.5" cy="464.5" r="26.5"/><rect class="cls-18" x="709" y="330.23" width="597" height="130.77" rx="65.39"/><polyline class="cls-19" points="1358 829 1355 243 1583 296 1713 444 1931 504 2121 832"/><polygon class="cls-20" points="1644 510 1504.5 703.52 1454.98 832 1354 826 1350 241 1582.23 298.75 1644 510"/><path class="cls-21" d="M2117,831l-425-15,135-271-25-8-122-34s26.74-32.83,45.52-55.45l29.36,8.08L1927,503Z"/><path class="cls-3" d="M2121,834a4,4,0,0,1-3.46-2L1928.36,505.42l-217.58-59.88-.78-.9-129.15-147L1354,246l1,580a4,4,0,0,1-4,4h0a4,4,0,0,1-4-4l-1-590,239.16,54.4,130.07,148.07,218.42,60.12.82,1.42,190,328a4,4,0,0,1-1.46,5.46A3.93,3.93,0,0,1,2121,834Z"/><path class="cls-3" d="M1746,712a3.91,3.91,0,0,1-1.78-.42,4,4,0,0,1-1.8-5.36l78.86-158.69L1678.9,506.85a4,4,0,0,1,2.2-7.7l151.62,43.32-83.14,167.31A4,4,0,0,1,1746,712Z"/><path class="cls-16" d="M2248,880h.5a25.5,25.5,0,0,0,25.5-25.5h0a25.5,25.5,0,0,0-25.5-25.5H115.5A25.5,25.5,0,0,0,90,854.5h0A25.5,25.5,0,0,0,115.5,880H296"/><polyline class="cls-16" points="1808.44 879 1808.44 879 2127 879 2127 879"/><polyline class="cls-16" points="1482.44 879 1482.44 879 1490 879 1490 879"/><polyline class="cls-16" points="491.44 879 491.44 879 1420 879"/><polyline class="cls-16" points="417 879 417 879 429 879"/><path class="cls-22" d="M2274,857.5a25.24,25.24,0,0,1-1,7A25.51,25.51,0,0,0,2248.5,846H115.5A25.51,25.51,0,0,0,91,864.5a25.24,25.24,0,0,1-1-7A25.5,25.5,0,0,1,115.5,832h2133a25.5,25.5,0,0,1,25.5,25.5Z"/><path class="cls-3" d="M1108,600a3,3,0,0,1-3-3V551a3,3,0,0,1,6,0v46A3,3,0,0,1,1108,600Z"/><path class="cls-3" d="M1108,644a3,3,0,0,1-3-3v-8a3,3,0,0,1,6,0v8A3,3,0,0,1,1108,644Z"/><path class="cls-16" d="M629.68,877.23l-16.68.1V967.5a29.5,29.5,0,1,1-59,0v-90l-7-.06L584,848Z"/><path class="cls-23" d="M616.5,956.5v13a29.5,29.5,0,1,1-59,0v-13a29.5,29.5,0,0,0,59,0Z"/><rect class="cls-24" x="181" y="618" width="45" height="209"/><rect class="cls-25" x="204" y="618" width="22" height="209"/><path class="cls-3" d="M230,831H177V614h53Zm-45-8h37V622H185Z"/><path class="cls-11" d="M305,569a63,63,0,0,0-52.67-62.14,62.84,62.84,0,0,0-27.39-41.77h0l-14.55,22.1A62.88,62.88,0,0,0,160,462h0v34.1a44,44,0,0,0-38.25-1.29h0l9.47,21.47A63,63,0,0,0,85,577v27h21l-.68.74a44.1,44.1,0,0,0,2.29,62.33h0l14-15a62.87,62.87,0,0,0,25.87,49.88h0L169,672.35V715h0a62.73,62.73,0,0,0,37-12v24h0a63,63,0,0,0,63-63V644.65l13.39,14.42h0a44.1,44.1,0,0,0,2.29-62.33L284,596h21Z"/><path class="cls-12" d="M242.21,485.52c-2.8-2.71-6.83-9.29-10.21-11.52l-21,29c-11.49-15.3-22.4-28-43-28v34.1c-11.48-6-20.23-12.73-33-7.1l9,21c-38,4-51,38-51,67v16H84V579a63,63,0,0,1,46.22-60.72l-9.47-21.47A44,44,0,0,1,159,498.1V464a62.88,62.88,0,0,1,50.39,25.19l14.55-22.1A62.75,62.75,0,0,1,242.21,485.52Z"/><path class="cls-13" d="M305,593H284l.68.74a44.09,44.09,0,0,1-2.29,62.33L269,641.65V661a63,63,0,0,1-63,63V700a62.75,62.75,0,0,1-37,12V686A62.8,62.8,0,0,0,184,678v24a63,63,0,0,0,63-63V619.65c3.19,3.44,6.34,6.93,9.58,10.32,3,3.1,2.44,3.42,6.09,2,3.06-1.21,7.22-5.42,9-8.13,4.1-6.23,2.34-14.54-1-20.68-1.57-2.9-12.35-19.47-15.71-19.12l29-3-1-37a62.69,62.69,0,0,0-8.82-32.16A63,63,0,0,1,305,566Z"/><path class="cls-3" d="M206,731h-4V710.31A66.39,66.39,0,0,1,169,719h-4V684.62l-16.69,22.89-3.23-2.36a66.42,66.42,0,0,1-26.73-43.77l-10.53,11.34L104.88,670a48.15,48.15,0,0,1-7.24-62H81V577a67.2,67.2,0,0,1,44.75-63.2l-9.27-21,3.66-1.61A47.84,47.84,0,0,1,156,490V458h4a66.39,66.39,0,0,1,50,22.44l13.75-20.89,3.35,2.2a66.38,66.38,0,0,1,28.6,41.67A66.73,66.73,0,0,1,309,569v31H292.36a48.15,48.15,0,0,1-7.24,62l-2.94,2.72L273,654.83V664A67.08,67.08,0,0,1,206,731Zm4-35.88v27.75A59.09,59.09,0,0,0,265,664V634.47l17.47,18.8a40.11,40.11,0,0,0-.72-53.81L274.82,592H301V569a58.76,58.76,0,0,0-49.32-58.2l-2.8-.46-.49-2.79A58.4,58.4,0,0,0,226,470.74l-15.4,23.39-3.42-4.54A58.52,58.52,0,0,0,164,466.13v36.58l-5.85-3.06a39.88,39.88,0,0,0-31-2.61l9.64,21.86-4.47,1.23A59.15,59.15,0,0,0,89,577v23h26.18l-6.93,7.46a40.11,40.11,0,0,0-.72,53.81L125.4,642l.17,9.93a58.5,58.5,0,0,0,21.07,44.25L173,660.08v50.79a58.49,58.49,0,0,0,30.65-11.13Z"/><rect class="cls-24" x="2079" y="616" width="45" height="209"/><rect class="cls-25" x="2102" y="616" width="22" height="209"/><path class="cls-3" d="M2128,829h-53V612h53Zm-45-8h37V620h-37Z"/><path class="cls-11" d="M2203,567a63,63,0,0,0-52.67-62.14,62.84,62.84,0,0,0-27.39-41.77h0l-14.55,22.1A62.88,62.88,0,0,0,2058,460h0v34.1a44,44,0,0,0-38.25-1.29h0l9.47,21.47A63,63,0,0,0,1983,575v27h21l-.68.74a44.1,44.1,0,0,0,2.29,62.33h0l14-15a62.87,62.87,0,0,0,25.87,49.88h0L2067,670.35V713h0a62.73,62.73,0,0,0,37-12v24h0a63,63,0,0,0,63-63V642.65l13.39,14.42h0a44.1,44.1,0,0,0,2.29-62.33L2182,594h21Z"/><path class="cls-12" d="M2140.21,483.52c-2.8-2.71-6.83-9.29-10.21-11.52l-21,29c-11.49-15.3-22.4-28-43-28v34.1c-11.48-6-20.23-12.73-33-7.1l9,21c-38,4-51,38-51,67v16h-9V577a63,63,0,0,1,46.22-60.72l-9.47-21.47A44,44,0,0,1,2057,496.1V462a62.88,62.88,0,0,1,50.39,25.19l14.55-22.1A62.75,62.75,0,0,1,2140.21,483.52Z"/><path class="cls-13" d="M2203,591h-21l.68.74a44.09,44.09,0,0,1-2.29,62.33L2167,639.65V659a63,63,0,0,1-63,63V698a62.75,62.75,0,0,1-37,12V684a62.8,62.8,0,0,0,15-8.06v24a63,63,0,0,0,63-63V617.65c3.19,3.44,6.34,6.93,9.58,10.32,3,3.1,2.44,3.42,6.09,2,3.06-1.21,7.22-5.42,9-8.13,4.1-6.23,2.34-14.54-1-20.68-1.57-2.9-12.35-19.47-15.71-19.12l29-3-1-37a62.69,62.69,0,0,0-8.82-32.16A63,63,0,0,1,2203,564Z"/><path class="cls-3" d="M2104,729h-4V708.31a66.39,66.39,0,0,1-33,8.69h-4V682.62l-16.69,22.89-3.23-2.36a66.42,66.42,0,0,1-26.73-43.77l-10.53,11.34-2.94-2.72a48.15,48.15,0,0,1-7.24-62H1979V575a67.2,67.2,0,0,1,44.75-63.2l-9.27-21,3.66-1.61A47.84,47.84,0,0,1,2054,488V456h4a66.39,66.39,0,0,1,50,22.44l13.75-20.89,3.35,2.2a66.38,66.38,0,0,1,28.6,41.67A66.73,66.73,0,0,1,2207,567v31h-16.64a48.15,48.15,0,0,1-7.24,62l-2.94,2.72-9.18-9.89V662A67.08,67.08,0,0,1,2104,729Zm4-35.88v27.75A59.09,59.09,0,0,0,2163,662V632.47l17.47,18.8a40.11,40.11,0,0,0-.72-53.81l-6.93-7.46H2199V567a58.76,58.76,0,0,0-49.32-58.2l-2.8-.46-.49-2.79A58.4,58.4,0,0,0,2124,468.74l-15.4,23.39-3.42-4.54A58.52,58.52,0,0,0,2062,464.13v36.58l-5.85-3.06a39.88,39.88,0,0,0-31-2.61l9.64,21.86-4.47,1.23A59.15,59.15,0,0,0,1987,575v23h26.18l-6.93,7.46a40.11,40.11,0,0,0-.72,53.81L2023.4,640l.17,9.93a58.5,58.5,0,0,0,21.07,44.25L2071,658.08v50.79a58.49,58.49,0,0,0,30.65-11.13Z"/><path class="cls-3" d="M1226.5,796.25a2.5,2.5,0,0,1-2.5-2.5V753a2.5,2.5,0,0,1,5,0v40.75A2.5,2.5,0,0,1,1226.5,796.25Z"/><path class="cls-3" d="M1262,668.5a2.39,2.39,0,0,1-.94-.19,2.48,2.48,0,0,1-1.37-3.25,99.34,99.34,0,0,0,7.37-38.56L1267,620a2.5,2.5,0,0,1,2.48-2.52h0A2.5,2.5,0,0,1,1272,620l.06,6.48a104,104,0,0,1-7.75,40.48A2.49,2.49,0,0,1,1262,668.5Z"/><rect class="cls-18" x="1369" y="610.23" width="597" height="130.77" rx="65.39"/><path class="cls-3" d="M1131,711a3,3,0,0,1-3-3V662a3,3,0,0,1,6,0v46A3,3,0,0,1,1131,711Z"/><path class="cls-3" d="M1131,755a3,3,0,0,1-3-3v-8a3,3,0,0,1,6,0v8A3,3,0,0,1,1131,755Z"/><path class="cls-11" d="M349.85,741.3a24.5,24.5,0,1,1,36.79,29.36.92.92,0,0,0,.64,1.66l9.22-1.16A24.5,24.5,0,0,1,399.33,820H243.67A24.61,24.61,0,0,1,222,796.82a23.84,23.84,0,0,1,8-19,27.61,27.61,0,0,1,11.84-5.89c2.7-.67,14.82.55,14.67-3.84a5.52,5.52,0,0,0-.42-1.63,25.23,25.23,0,0,1-1.5-11c0-.4.1-.79.16-1.18,2.09-13,14.77-21.46,27.7-19.16l15.62,2.79a2.63,2.63,0,0,0,3.07-2.23,24.5,24.5,0,0,1,48.8,3.06,23,23,0,0,1-.15,2.64c-.22.53-.42,1.07-.59,1.62"/><path class="cls-12" d="M348.56,729.6a24.49,24.49,0,0,0-38.36,17,2.63,2.63,0,0,1-3.07,2.23L291.51,746c-12.93-2.3-25.61,6.2-27.7,19.16-.06.39-.11.78-.16,1.18a25.23,25.23,0,0,0,1.5,11,5.52,5.52,0,0,1,.42,1.63c.15,4.39-12,3.17-14.67,3.84a27.61,27.61,0,0,0-11.84,5.89,23.84,23.84,0,0,0-8,19,24.29,24.29,0,0,0,4.45,12.9A24.59,24.59,0,0,1,225,801.82a23.84,23.84,0,0,1,8-19,27.61,27.61,0,0,1,11.84-5.89c2.7-.67,14.82.55,14.67-3.84a5.52,5.52,0,0,0-.42-1.63,25.23,25.23,0,0,1-1.5-11c.05-.4.1-.79.16-1.18,2.09-13,14.77-21.46,27.7-19.16l15.62,2.79a2.63,2.63,0,0,0,3.07-2.23,24.49,24.49,0,0,1,44.36-11Z"/><path class="cls-13" d="M417,800.82A24.6,24.6,0,0,1,395.33,824H239.67a24.59,24.59,0,0,1-20-15.49,23.48,23.48,0,0,0,6,1.49H381.33A24.6,24.6,0,0,0,403,786.82a24.25,24.25,0,0,0-1.63-10A24.47,24.47,0,0,1,417,800.82Z"/><path class="cls-3" d="M398.55,827.84l-156.33,0a28.67,28.67,0,0,1-25.19-27,27.76,27.76,0,0,1,9.38-22.21,31.44,31.44,0,0,1,13.53-6.78,23.82,23.82,0,0,1,4.61-.39,45,45,0,0,0,6.6-.56,28.4,28.4,0,0,1-1.47-12.13c0-.46.11-.92.18-1.37A26.81,26.81,0,0,1,261,739.71,28.31,28.31,0,0,1,282.21,735l14.24,2.53A28.5,28.5,0,0,1,351.69,734a28.52,28.52,0,0,1,43,37.12l.82-.07A28.51,28.51,0,0,1,424,800.85a28.67,28.67,0,0,1-25.19,27Zm-155.64-8H398.09A20.62,20.62,0,0,0,416,800.48,20.51,20.51,0,0,0,395.74,779l-9,1.13a4.91,4.91,0,0,1-3.45-8.89,20.5,20.5,0,1,0-30.77-24.61l0,0c-.18.45-.33.87-.46,1.27a4,4,0,0,1-7.64-2.36c.14-.46.3-.93.49-1.41s.07-1.1.07-1.67a20.5,20.5,0,0,0-40.83-2.57,6.64,6.64,0,0,1-2.63,4.48,6.71,6.71,0,0,1-5.11,1.2l-15.62-2.79a20.33,20.33,0,0,0-15.23,3.41,18.89,18.89,0,0,0-7.82,12.44c-.05.33-.09.66-.13,1a21.11,21.11,0,0,0,1.29,9.28l0,.11a8.6,8.6,0,0,1,.6,2.71,6.08,6.08,0,0,1-1.64,4.38c-2.6,2.77-7.28,3.14-13.12,3.32-1.07,0-2.54.08-3,.17a23.31,23.31,0,0,0-10.13,5A19.82,19.82,0,0,0,225,800.48,20.62,20.62,0,0,0,242.91,819.84Z"/><path class="cls-11" d="M2192.85,741.3a24.5,24.5,0,1,1,36.79,29.36.92.92,0,0,0,.64,1.66l9.22-1.16a24.5,24.5,0,0,1,2.83,48.84H2086.67A24.61,24.61,0,0,1,2065,796.82a23.84,23.84,0,0,1,8-19,27.61,27.61,0,0,1,11.84-5.89c2.7-.67,14.82.55,14.67-3.84a5.52,5.52,0,0,0-.42-1.63,25.23,25.23,0,0,1-1.5-11c0-.4.1-.79.16-1.18,2.09-13,14.77-21.46,27.7-19.16l15.62,2.79a2.63,2.63,0,0,0,3.07-2.23,24.5,24.5,0,0,1,48.8,3.06,23,23,0,0,1-.15,2.64c-.22.53-.42,1.07-.59,1.62"/><path class="cls-12" d="M2191.56,729.6a24.49,24.49,0,0,0-38.36,17,2.63,2.63,0,0,1-3.07,2.23L2134.51,746c-12.93-2.3-25.61,6.2-27.7,19.16-.06.39-.11.78-.16,1.18a25.23,25.23,0,0,0,1.5,11,5.52,5.52,0,0,1,.42,1.63c.15,4.39-12,3.17-14.67,3.84a27.61,27.61,0,0,0-11.84,5.89,23.84,23.84,0,0,0-8,19,24.29,24.29,0,0,0,4.45,12.9,24.59,24.59,0,0,1-10.45-18.9,23.84,23.84,0,0,1,8-19,27.61,27.61,0,0,1,11.84-5.89c2.7-.67,14.82.55,14.67-3.84a5.52,5.52,0,0,0-.42-1.63,25.23,25.23,0,0,1-1.5-11c0-.4.1-.79.16-1.18,2.09-13,14.77-21.46,27.7-19.16l15.62,2.79a2.63,2.63,0,0,0,3.07-2.23,24.49,24.49,0,0,1,44.36-11Z"/><path class="cls-13" d="M2258,799.82A24.6,24.6,0,0,1,2236.33,823H2080.67a24.59,24.59,0,0,1-20-15.49,23.48,23.48,0,0,0,6,1.49h155.66A24.6,24.6,0,0,0,2244,785.82a24.25,24.25,0,0,0-1.63-10A24.47,24.47,0,0,1,2258,799.82Z"/><path class="cls-3" d="M2241.55,827.84l-156.33,0a28.67,28.67,0,0,1-25.19-27,27.76,27.76,0,0,1,9.38-22.21,31.44,31.44,0,0,1,13.53-6.78,23.82,23.82,0,0,1,4.61-.39,45,45,0,0,0,6.6-.56,28.4,28.4,0,0,1-1.47-12.13c.05-.46.11-.92.18-1.37a26.81,26.81,0,0,1,11.09-17.7,28.31,28.31,0,0,1,21.26-4.76l14.24,2.53a28.5,28.5,0,0,1,55.24-3.53,28.52,28.52,0,0,1,43,37.12l.82-.07A28.51,28.51,0,0,1,2267,800.85a28.67,28.67,0,0,1-25.19,27Zm-155.64-8h155.18A20.62,20.62,0,0,0,2259,800.48,20.51,20.51,0,0,0,2238.74,779l-9,1.13a4.91,4.91,0,0,1-3.45-8.89,20.5,20.5,0,1,0-30.77-24.61l0,0c-.18.45-.33.87-.46,1.27a4,4,0,1,1-7.64-2.36c.14-.46.3-.93.49-1.41s.07-1.1.07-1.67a20.5,20.5,0,0,0-40.83-2.57,6.64,6.64,0,0,1-2.63,4.48,6.71,6.71,0,0,1-5.11,1.2l-15.62-2.79a20.33,20.33,0,0,0-15.23,3.41,18.89,18.89,0,0,0-7.82,12.44c-.05.33-.09.66-.13,1a21.11,21.11,0,0,0,1.29,9.28l0,.11a8.6,8.6,0,0,1,.6,2.71,6.08,6.08,0,0,1-1.64,4.38c-2.6,2.77-7.28,3.14-13.12,3.32-1.07,0-2.54.08-3,.17a23.31,23.31,0,0,0-10.13,5,19.82,19.82,0,0,0-6.69,15.85A20.62,20.62,0,0,0,2085.91,819.84Z"/><path class="cls-3" d="M1536,680a4,4,0,0,1-3.25-6.33l117.86-164.41-32.45-110.13a4,4,0,0,1,7.68-2.26l33.55,113.87L1539.25,678.33A4,4,0,0,1,1536,680Z"/><path class="cls-5" d="M879,282a2,2,0,0,1-2-2V259a2,2,0,0,1,4,0v21A2,2,0,0,1,879,282Z"/><path class="cls-5" d="M889.5,271.5h-21a2,2,0,0,1,0-4h21a2,2,0,0,1,0,4Z"/><path class="cls-5" d="M2077,398a2,2,0,0,1-2-2V375a2,2,0,0,1,4,0v21A2,2,0,0,1,2077,398Z"/><path class="cls-5" d="M2087.5,387.5h-21a2,2,0,0,1,0-4h21a2,2,0,0,1,0,4Z"/><path class="cls-5" d="M447,25a2,2,0,0,1-2-2V2a2,2,0,0,1,4,0V23A2,2,0,0,1,447,25Z"/><path class="cls-5" d="M457.5,14.5h-21a2,2,0,0,1,0-4h21a2,2,0,0,1,0,4Z"/><path class="cls-5" d="M2287,757a2,2,0,0,1-2-2V734a2,2,0,0,1,4,0v21A2,2,0,0,1,2287,757Z"/><path class="cls-5" d="M2297.5,746.5h-21a2,2,0,0,1,0-4h21a2,2,0,0,1,0,4Z"/><path class="cls-3" d="M1133,253h-86a4,4,0,0,1,0-8h86a4,4,0,0,1,0,8Z"/><path class="cls-3" d="M1185,253h-28a4,4,0,0,1,0-8h28a4,4,0,0,1,0,8Z"/><path class="cls-3" d="M2093,89h-86a4,4,0,0,1,0-8h86a4,4,0,0,1,0,8Z"/><path class="cls-3" d="M2145,89h-28a4,4,0,0,1,0-8h28a4,4,0,0,1,0,8Z"/><path class="cls-3" d="M227,361H141a4,4,0,0,1,0-8h86a4,4,0,0,1,0,8Z"/><path class="cls-3" d="M279,361H251a4,4,0,0,1,0-8h28a4,4,0,0,1,0,8Z"/><path class="cls-3" d="M651,131a4,4,0,0,1-4-4,41,41,0,0,0-82,0,4,4,0,0,1-8,0,49,49,0,0,1,98,0A4,4,0,0,1,651,131Z"/><path class="cls-3" d="M560,131H500a4,4,0,0,1,0-8h60a4,4,0,0,1,0,8Z"/><path class="cls-3" d="M791,131a4,4,0,0,1-4-4,66,66,0,0,0-132,0,4,4,0,0,1-8,0,74,74,0,0,1,148,0A4,4,0,0,1,791,131Z"/><path class="cls-3" d="M559,131H457a4,4,0,0,1,0-8H559a4,4,0,0,1,0,8Z"/><path class="cls-3" d="M1987,289a4,4,0,0,1-4-4,41,41,0,0,0-82,0,4,4,0,0,1-8,0,49,49,0,0,1,98,0A4,4,0,0,1,1987,289Z"/><path class="cls-3" d="M2048,289h-60a4,4,0,0,1,0-8h60a4,4,0,0,1,0,8Z"/><path class="cls-3" d="M1897,289a4,4,0,0,1-4-4,66,66,0,0,0-132,0,4,4,0,0,1-8,0,74,74,0,0,1,148,0A4,4,0,0,1,1897,289Z"/><path class="cls-3" d="M2091,289H1989a4,4,0,0,1,0-8h102a4,4,0,0,1,0,8Z"/><path class="cls-16" d="M1700.77,876H1700v90a57,57,0,0,1-114,0V882.22L1645,859Z"/><path class="cls-23" d="M1697,949v18a57,57,0,0,1-114,0V949a57,57,0,0,0,114,0Z"/><path class="cls-3" d="M1642,1030a61.07,61.07,0,0,1-61-61V883H670.67l-52.67.31V969.5a33.5,33.5,0,0,1-67,0v-86L114.5,883a29.5,29.5,0,0,1,0-59h2133a29.5,29.5,0,0,1,0,59H1703v86A61.06,61.06,0,0,1,1642,1030ZM670.64,875H1589v94a53,53,0,0,0,106,0V875h552.5a21.5,21.5,0,0,0,0-43H114.5a21.5,21.5,0,0,0,0,43l444.5.5v94a25.5,25.5,0,0,0,51,0V875.36Z"/><path class="cls-7" d="M902,831.59V1364.5a33.45,33.45,0,0,0,31.49,33.44l1,0A30,30,0,0,0,966,1367.5V831"/><path class="cls-3" d="M934.5,1399h-.12c-.38,0-.76,0-1.13-.06A37.5,37.5,0,0,1,898,1361.5V828.59a4,4,0,0,1,8,0V1361.5A29.47,29.47,0,0,0,933.72,1391l.78,0A26,26,0,0,0,962,1364.5V828a4,4,0,0,1,8,0v536.5a37.59,37.59,0,0,1-1.4,10.17l-.12.37a37.46,37.46,0,0,1-33.86,24Z"/><ellipse class="cls-10" cx="942.5" cy="1286.57" rx="2.16" ry="9.72"/><ellipse class="cls-10" cx="929.54" cy="1306.23" rx="2.16" ry="9.72"/><ellipse class="cls-10" cx="942.5" cy="1325.89" rx="2.16" ry="9.72"/><ellipse class="cls-10" cx="929.54" cy="1345.55" rx="2.16" ry="9.72"/><ellipse class="cls-10" cx="929.54" cy="1266.91" rx="2.16" ry="9.72"/><ellipse class="cls-10" cx="942.5" cy="1247.26" rx="2.16" ry="9.72"/><ellipse class="cls-10" cx="937.5" cy="938.57" rx="2.16" ry="9.72"/><ellipse class="cls-10" cx="924.54" cy="958.23" rx="2.16" ry="9.72"/><ellipse class="cls-10" cx="937.5" cy="977.89" rx="2.16" ry="9.72"/><ellipse class="cls-10" cx="924.54" cy="997.55" rx="2.16" ry="9.72"/><ellipse class="cls-10" cx="924.54" cy="918.91" rx="2.16" ry="9.72"/><ellipse class="cls-10" cx="937.5" cy="899.26" rx="2.16" ry="9.72"/><path class="cls-3" d="M947,1104a4,4,0,0,1-4-4v-46a4,4,0,0,1,8,0v46A4,4,0,0,1,947,1104Z"/><path class="cls-3" d="M947,1148a4,4,0,0,1-4-4v-8a4,4,0,0,1,8,0v8A4,4,0,0,1,947,1148Z"/><path class="cls-3" d="M929,1164a4,4,0,0,1-4-4v-46a4,4,0,0,1,8,0v46A4,4,0,0,1,929,1164Z"/><path class="cls-3" d="M929,1208a4,4,0,0,1-4-4v-8a4,4,0,0,1,8,0v8A4,4,0,0,1,929,1208Z"/><path class="cls-7" d="M1028,832.59V1365.5a33.45,33.45,0,0,0,31.49,33.44l1,0a30,30,0,0,0,31.5-30.49V832"/><path class="cls-3" d="M1058.5,1399h-.12c-.38,0-.76,0-1.13-.06A37.5,37.5,0,0,1,1022,1361.5V828.59a4,4,0,0,1,8,0V1361.5a29.47,29.47,0,0,0,27.72,29.45l.78,0a26,26,0,0,0,27.5-26.49V828a4,4,0,0,1,8,0v536.5a37.59,37.59,0,0,1-1.4,10.17l-.12.37a37.46,37.46,0,0,1-33.86,24Z"/><ellipse class="cls-10" cx="1066.5" cy="1286.57" rx="2.16" ry="9.72"/><ellipse class="cls-10" cx="1053.54" cy="1306.23" rx="2.16" ry="9.72"/><ellipse class="cls-10" cx="1066.5" cy="1325.89" rx="2.16" ry="9.72"/><ellipse class="cls-10" cx="1053.54" cy="1345.55" rx="2.16" ry="9.72"/><ellipse class="cls-10" cx="1053.54" cy="1266.91" rx="2.16" ry="9.72"/><ellipse class="cls-10" cx="1066.5" cy="1247.26" rx="2.16" ry="9.72"/><ellipse class="cls-10" cx="1061.5" cy="938.57" rx="2.16" ry="9.72"/><ellipse class="cls-10" cx="1048.54" cy="958.23" rx="2.16" ry="9.72"/><ellipse class="cls-10" cx="1061.5" cy="977.89" rx="2.16" ry="9.72"/><ellipse class="cls-10" cx="1048.54" cy="997.55" rx="2.16" ry="9.72"/><ellipse class="cls-10" cx="1048.54" cy="918.91" rx="2.16" ry="9.72"/><ellipse class="cls-10" cx="1061.5" cy="899.26" rx="2.16" ry="9.72"/><path class="cls-3" d="M1071,1104a4,4,0,0,1-4-4v-46a4,4,0,0,1,8,0v46A4,4,0,0,1,1071,1104Z"/><path class="cls-3" d="M1071,1148a4,4,0,0,1-4-4v-8a4,4,0,0,1,8,0v8A4,4,0,0,1,1071,1148Z"/><path class="cls-3" d="M1053,1164a4,4,0,0,1-4-4v-46a4,4,0,0,1,8,0v46A4,4,0,0,1,1053,1164Z"/><path class="cls-3" d="M1053,1208a4,4,0,0,1-4-4v-8a4,4,0,0,1,8,0v8A4,4,0,0,1,1053,1208Z"/><path class="cls-10" d="M1665,926.2c-.47-18.76,1.43-34,4.25-34.09s5.49,15.08,6,33.83-1.43,34-4.25,34.08S1665.51,945,1665,926.2Z"/><path class="cls-10" d="M1664.37,872.71a12.83,12.83,0,0,1,1.57-5.8,5.22,5.22,0,0,1,3.4-2.68c1.38-.29,2.85.75,3.82,2.43a13,13,0,0,1-.71,13,6.64,6.64,0,0,1-1,1.06,4,4,0,0,1-1.08.73,2.41,2.41,0,0,1-2.13.11,6.1,6.1,0,0,1-3-3.06A12.85,12.85,0,0,1,1664.37,872.71Z"/><path class="cls-10" d="M2128.6,983c9-16.46,18.29-28.71,20.76-27.36s-2.8,15.8-11.79,32.26-18.29,28.71-20.77,27.36S2119.61,999.46,2128.6,983Z"/><path class="cls-10" d="M2154.83,936.38a13,13,0,0,1,4.27-4.24,5.23,5.23,0,0,1,4.28-.61c1.34.44,2.09,2.08,2.09,4a12.92,12.92,0,0,1-7.14,10.93,6.85,6.85,0,0,1-1.38.44,4.53,4.53,0,0,1-1.29.1,2.44,2.44,0,0,1-1.9-1,6.05,6.05,0,0,1-1-4.13A12.83,12.83,0,0,1,2154.83,936.38Z"/><path class="cls-10" d="M1379,361.2c-.47-18.76,1.43-34,4.25-34.09s5.49,15.08,6,33.83-1.43,34-4.25,34.08S1379.51,380,1379,361.2Z"/><path class="cls-10" d="M1378.37,307.71a12.83,12.83,0,0,1,1.57-5.8,5.22,5.22,0,0,1,3.4-2.68c1.38-.29,2.85.75,3.82,2.43a13,13,0,0,1-.71,13,6.64,6.64,0,0,1-1,1.06,4,4,0,0,1-1.08.73,2.41,2.41,0,0,1-2.13.11,6.1,6.1,0,0,1-3-3.06A12.85,12.85,0,0,1,1378.37,307.71Z"/><path class="cls-10" d="M584,926.2c-.47-18.76,1.43-34,4.25-34.09s5.49,15.08,6,33.83S592.82,960,590,960,584.51,945,584,926.2Z"/><path class="cls-10" d="M583.37,872.71a12.83,12.83,0,0,1,1.57-5.8,5.22,5.22,0,0,1,3.4-2.68c1.38-.29,2.85.75,3.82,2.43a13,13,0,0,1-.71,13,6.64,6.64,0,0,1-1,1.06,4,4,0,0,1-1.08.73,2.41,2.41,0,0,1-2.13.11,6.1,6.1,0,0,1-3-3.06A12.85,12.85,0,0,1,583.37,872.71Z"/><circle class="cls-11" cx="466.5" cy="788.5" r="37.5"/><path class="cls-12" d="M473,827.43a36.63,36.63,0,0,1-6.5.57,37.5,37.5,0,0,1,0-75,36.63,36.63,0,0,1,6.5.57,37.5,37.5,0,0,0,0,73.86Z"/><path class="cls-3" d="M466.5,830A41.5,41.5,0,1,1,508,788.5,41.55,41.55,0,0,1,466.5,830Zm0-75A33.5,33.5,0,1,0,500,788.5,33.54,33.54,0,0,0,466.5,755Z"/><circle class="cls-11" cx="516.5" cy="788.5" r="37.5"/><path class="cls-12" d="M523,827.43a36.63,36.63,0,0,1-6.5.57,37.5,37.5,0,0,1,0-75,36.63,36.63,0,0,1,6.5.57,37.5,37.5,0,0,0,0,73.86Z"/><path class="cls-3" d="M516.5,830A41.5,41.5,0,1,1,558,788.5,41.55,41.55,0,0,1,516.5,830Zm0-75A33.5,33.5,0,1,0,550,788.5,33.54,33.54,0,0,0,516.5,755Z"/><circle class="cls-11" cx="626.5" cy="788.5" r="37.5"/><path class="cls-12" d="M633,827.43a36.63,36.63,0,0,1-6.5.57,37.5,37.5,0,0,1,0-75,36.63,36.63,0,0,1,6.5.57,37.5,37.5,0,0,0,0,73.86Z"/><path class="cls-3" d="M626.5,830A41.5,41.5,0,1,1,668,788.5,41.55,41.55,0,0,1,626.5,830Zm0-75A33.5,33.5,0,1,0,660,788.5,33.54,33.54,0,0,0,626.5,755Z"/><circle class="cls-11" cx="724.5" cy="788.5" r="37.5"/><path class="cls-12" d="M731,827.43a36.63,36.63,0,0,1-6.5.57,37.5,37.5,0,0,1,0-75,36.63,36.63,0,0,1,6.5.57,37.5,37.5,0,0,0,0,73.86Z"/><path class="cls-3" d="M724.5,830A41.5,41.5,0,1,1,766,788.5,41.55,41.55,0,0,1,724.5,830Zm0-75A33.5,33.5,0,1,0,758,788.5,33.54,33.54,0,0,0,724.5,755Z"/><circle class="cls-11" cx="672.5" cy="788.5" r="37.5"/><path class="cls-12" d="M679,827.43a36.63,36.63,0,0,1-6.5.57,37.5,37.5,0,0,1,0-75,36.63,36.63,0,0,1,6.5.57,37.5,37.5,0,0,0,0,73.86Z"/><path class="cls-3" d="M672.5,830A41.5,41.5,0,1,1,714,788.5,41.55,41.55,0,0,1,672.5,830Zm0-75A33.5,33.5,0,1,0,706,788.5,33.54,33.54,0,0,0,672.5,755Z"/><circle class="cls-11" cx="770.5" cy="788.5" r="37.5"/><path class="cls-12" d="M777,827.43a36.63,36.63,0,0,1-6.5.57,37.5,37.5,0,0,1,0-75,36.63,36.63,0,0,1,6.5.57,37.5,37.5,0,0,0,0,73.86Z"/><path class="cls-3" d="M770.5,830A41.5,41.5,0,1,1,812,788.5,41.55,41.55,0,0,1,770.5,830Zm0-75A33.5,33.5,0,1,0,804,788.5,33.54,33.54,0,0,0,770.5,755Z"/><circle class="cls-11" cx="1000.5" cy="788.5" r="37.5"/><path class="cls-12" d="M1007,827.43a36.63,36.63,0,0,1-6.5.57,37.5,37.5,0,0,1,0-75,36.63,36.63,0,0,1,6.5.57,37.5,37.5,0,0,0,0,73.86Z"/><path class="cls-3" d="M1000.5,830a41.5,41.5,0,1,1,41.5-41.5A41.55,41.55,0,0,1,1000.5,830Zm0-75a33.5,33.5,0,1,0,33.5,33.5A33.54,33.54,0,0,0,1000.5,755Z"/><circle class="cls-11" cx="1166.5" cy="788.5" r="37.5"/><path class="cls-12" d="M1173,827.43a36.63,36.63,0,0,1-6.5.57,37.5,37.5,0,0,1,0-75,36.63,36.63,0,0,1,6.5.57,37.5,37.5,0,0,0,0,73.86Z"/><path class="cls-3" d="M1166.5,830a41.5,41.5,0,1,1,41.5-41.5A41.55,41.55,0,0,1,1166.5,830Zm0-75a33.5,33.5,0,1,0,33.5,33.5A33.54,33.54,0,0,0,1166.5,755Z"/><circle class="cls-11" cx="1033.86" cy="802.86" r="23.86"/><path class="cls-12" d="M1038,827.64a23.44,23.44,0,0,1-4.14.36,23.87,23.87,0,0,1,0-47.73,22.53,22.53,0,0,1,4.14.37,23.86,23.86,0,0,0,0,47Z"/><path class="cls-3" d="M1033.86,830.73a27.87,27.87,0,1,1,27.87-27.87A27.9,27.9,0,0,1,1033.86,830.73Zm0-47.73a19.87,19.87,0,1,0,19.87,19.86A19.88,19.88,0,0,0,1033.86,783Z"/><circle class="cls-11" cx="1078.86" cy="802.86" r="23.86"/><path class="cls-12" d="M1083,827.64a23.44,23.44,0,0,1-4.14.36,23.87,23.87,0,0,1,0-47.73,22.53,22.53,0,0,1,4.14.37,23.86,23.86,0,0,0,0,47Z"/><path class="cls-3" d="M1078.86,830.73a27.87,27.87,0,1,1,27.87-27.87A27.9,27.9,0,0,1,1078.86,830.73Zm0-47.73a19.87,19.87,0,1,0,19.87,19.86A19.88,19.88,0,0,0,1078.86,783Z"/><circle class="cls-11" cx="1120.86" cy="802.86" r="23.86"/><path class="cls-12" d="M1125,827.64a23.44,23.44,0,0,1-4.14.36,23.87,23.87,0,0,1,0-47.73,22.53,22.53,0,0,1,4.14.37,23.86,23.86,0,0,0,0,47Z"/><path class="cls-3" d="M1120.86,830.73a27.87,27.87,0,1,1,27.87-27.87A27.9,27.9,0,0,1,1120.86,830.73Zm0-47.73a19.87,19.87,0,1,0,19.87,19.86A19.88,19.88,0,0,0,1120.86,783Z"/><circle class="cls-11" cx="576.5" cy="788.5" r="37.5"/><path class="cls-12" d="M583,827.43a36.63,36.63,0,0,1-6.5.57,37.5,37.5,0,0,1,0-75,36.63,36.63,0,0,1,6.5.57,37.5,37.5,0,0,0,0,73.86Z"/><path class="cls-3" d="M576.5,830A41.5,41.5,0,1,1,618,788.5,41.55,41.55,0,0,1,576.5,830Zm0-75A33.5,33.5,0,1,0,610,788.5,33.54,33.54,0,0,0,576.5,755Z"/><circle class="cls-3" cx="488.5" cy="981.5" r="10.5"/><circle class="cls-3" cx="765.5" cy="949.5" r="10.5"/><circle class="cls-3" cx="1341.5" cy="1044.5" r="10.5"/><circle class="cls-3" cx="1516.5" cy="941.5" r="10.5"/><circle class="cls-3" cx="1792.5" cy="1032.5" r="10.5"/><circle class="cls-3" cx="2102.5" cy="941.5" r="10.5"/><path class="cls-10" d="M559.58,769.58a5.3,5.3,0,0,1,2.63-2.21,2,2,0,0,1,2.19.35,2.52,2.52,0,0,1,.47,2.09,6.58,6.58,0,0,1-1,2.48,6.48,6.48,0,0,1-1.82,2,2.53,2.53,0,0,1-2.09.49,2,2,0,0,1-1.27-1.82A5.36,5.36,0,0,1,559.58,769.58Z"/><path class="cls-10" d="M749.12,770.85c1.91-2.2,4.33-3.23,5.39-2.31s.37,3.46-1.54,5.66-4.33,3.23-5.39,2.3S747.2,773,749.12,770.85Z"/><path class="cls-10" d="M767.71,761.66a2.56,2.56,0,1,1-2.63,2.55A2.59,2.59,0,0,1,767.71,761.66Z"/><path class="cls-10" d="M442.12,803.37a12.7,12.7,0,0,1-.35-6c.35-1.56,1-2.46,1.71-2.45s1.33.88,1.89,2.17a60.41,60.41,0,0,1,2.88,9.92c.21,1.38.16,2.44-.44,2.83s-1.63,0-2.75-1.15A12.66,12.66,0,0,1,442.12,803.37Z"/><path class="cls-10" d="M441.49,777.4a9,9,0,0,1,2.89-4c1.07-.77,2-.91,2.57-.48s.62,1.37.44,2.47a19.53,19.53,0,0,1-1.14,3.83,20,20,0,0,1-1.74,3.58c-.62.94-1.28,1.57-2,1.52s-1.31-.8-1.58-2.09A8.94,8.94,0,0,1,441.49,777.4Z"/><path class="cls-10" d="M102.09,568.23a53.56,53.56,0,0,1,3.56-7.89,42.6,42.6,0,0,1,3.91-5.87c2.53-3.13,4.58-4.63,5.11-4.21,1.16.92-4,8.86-7.76,19.66s-4.81,20.19-6.29,20.19c-.67,0-1.33-2.46-1.33-6.49a43,43,0,0,1,.62-7A54,54,0,0,1,102.09,568.23Z"/><path class="cls-10" d="M121.92,539.34c2.09-1.46,4.44-1.7,5.24-.55s-.23,3.28-2.33,4.74-4.44,1.7-5.25.54S119.82,540.8,121.92,539.34Z"/><path class="cls-10" d="M1997.48,566.73a36.92,36.92,0,0,1,2.66-6.56,29.17,29.17,0,0,1,3.17-4.82c2.09-2.54,3.86-3.67,4.39-3.25,1.14.93-2.84,7.37-5.32,16.07s-2.76,16.22-4.22,16.39c-.67.06-1.55-1.84-1.94-5.11a29.56,29.56,0,0,1,0-5.77A36.55,36.55,0,0,1,1997.48,566.73Z"/><path class="cls-10" d="M2017.69,539.37c3.06-2,6.22-2.26,6.84-1s-1.29,3.5-4.09,5.3-5.65,2.59-6.53,1.49S2014.62,541.33,2017.69,539.37Z"/></g></g></svg>