<svg width="682" height="712" viewBox="0 0 682 712" fill="none" xmlns="http://www.w3.org/2000/svg">
<path d="M113.938 649.29L253.877 521.467L192.191 454.326L74.7524 606.639L113.938 649.29Z" fill="#59474E"/>
<path d="M243.303 465.835L274.188 499.453L341 442.14L357.837 427.783V427.667L424.755 370.356L636.557 188.85L652 21" fill="#90BAE1"/>
<path d="M212.417 432.219L243.303 465.835L652 21L497.786 37.8086L341 254.565L298.533 313.278L278.371 341.175H278.264L257.245 370.356L212.417 432.219Z" fill="#B0D3F0"/>
<path d="M243.303 465.835L212.417 432.219L257.245 370.356L278.264 341.175H278.371L298.533 313.278L341 254.565L497.786 37.8086L652 21" fill="#B0D3F0"/>
<path d="M351.241 360.025C354.085 360.024 356.812 358.794 358.823 356.606L551.622 146.758C555.686 142.178 555.629 134.897 551.491 130.395C547.355 125.893 540.666 125.829 536.457 130.252L343.659 340.101C340.593 343.44 339.676 348.459 341.335 352.82C342.996 357.181 346.905 360.024 351.241 360.025Z" fill="#3F5C6C"/>
<path d="M574.883 116.609C577.727 116.609 580.454 115.378 582.465 113.19L605.597 88.0124C608.385 85.0823 609.502 80.7413 608.521 76.6608C607.539 72.5803 604.611 69.3923 600.861 68.3239C597.112 67.2555 593.125 68.472 590.432 71.5066L567.278 96.6838C564.212 100.023 563.295 105.042 564.954 109.403C566.614 113.764 570.523 116.608 574.86 116.609H574.883Z" fill="#3F5C6C"/>
<path d="M144.319 415.527C144.322 421.84 146.637 427.889 150.754 432.336L274.082 566.568C282.61 575.85 296.438 575.85 304.967 566.568C313.495 557.285 313.495 542.235 304.967 532.952L181.639 398.72C175.383 391.934 165.992 389.908 157.832 393.584C149.671 397.259 144.341 405.914 144.319 415.527Z" fill="#F0C419"/>
<path d="M73.6263 698C97.7204 698 117.253 676.741 117.253 650.516C117.253 624.291 97.7204 603.032 73.6263 603.032C49.5321 603.032 30 624.291 30 650.516C30 676.741 49.5321 698 73.6263 698Z" fill="#F0C419"/>
<path d="M73.6263 673.861C85.4717 673.861 95.0743 663.409 95.0743 650.516C95.0743 637.623 85.4717 627.172 73.6263 627.172C61.7808 627.172 52.1782 637.623 52.1782 650.516C52.1782 663.409 61.7808 673.861 73.6263 673.861Z" fill="#E57E25"/>
<path d="M568.062 649.29L428.122 521.467L489.809 454.326L607.248 606.639L568.062 649.29Z" fill="#59474E"/>
<path d="M438.697 465.835L407.812 499.453L341 442.14L324.163 427.783V427.667L257.245 370.356L45.4431 188.85L30 21" fill="#90BAE1"/>
<path d="M469.583 432.219L438.697 465.835L30 21L184.213 37.8086L341 254.565L383.467 313.278L403.629 341.175H403.736L424.755 370.356L469.583 432.219Z" fill="#B0D3F0"/>
<path d="M438.697 465.835L469.583 432.219L424.755 370.356L403.736 341.175H403.629L383.467 313.278L341 254.565L184.213 37.8086L30 21" fill="#B0D3F0"/>
<path d="M330.759 360.025C327.915 360.024 325.188 358.794 323.177 356.606L130.378 146.758C126.314 142.178 126.371 134.897 130.509 130.395C134.645 125.893 141.334 125.829 145.543 130.252L338.341 340.098C341.407 343.437 342.324 348.456 340.665 352.817C339.004 357.181 335.095 360.024 330.759 360.025Z" fill="#3F5C6C"/>
<path d="M107.117 116.609C104.277 116.614 101.549 115.393 99.5352 113.212L76.4034 88.0111C72.3397 83.4308 72.3968 76.1504 76.5346 71.6481C80.6724 67.1457 87.3601 67.0823 91.5683 71.5052L114.722 96.6825C117.788 100.021 118.705 105.041 117.046 109.401C115.387 113.762 111.477 116.606 107.14 116.608H107.117V116.609Z" fill="#3F5C6C"/>
<path d="M537.681 415.527C537.678 421.84 535.363 427.889 531.246 432.336L407.919 566.568C399.389 575.85 385.562 575.85 377.034 566.568C368.504 557.285 368.504 542.235 377.034 532.952L500.361 398.72C506.617 391.934 516.008 389.908 524.168 393.584C532.329 397.259 537.659 405.914 537.681 415.527Z" fill="#F0C419"/>
<path d="M608.374 698C632.468 698 652 676.741 652 650.516C652 624.291 632.468 603.032 608.374 603.032C584.28 603.032 564.747 624.291 564.747 650.516C564.747 676.741 584.28 698 608.374 698Z" fill="#F0C419"/>
<path d="M608.374 673.861C620.219 673.861 629.822 663.409 629.822 650.516C629.822 637.623 620.219 627.172 608.374 627.172C596.528 627.172 586.926 637.623 586.926 650.516C586.926 663.409 596.528 673.861 608.374 673.861Z" fill="#E57E25"/>
<g filter="url(#filter0_d)">
<g clip-path="url(#clip0)">
<path d="M383.952 594.457C350.177 573.029 308.635 573.029 274.862 594.456C266.765 599.593 258.121 603.563 249.145 606.266C244.868 607.553 240.307 608.085 235.737 608.124C203.537 608.402 173.762 618.92 152.04 636.108C145.655 641.16 149.182 651.398 157.332 651.398H461.984C482.978 651.398 487.751 622.018 467.823 615.429C453.92 610.833 438.787 608.259 423.076 608.125C418.505 608.085 413.944 607.553 409.668 606.266C400.692 603.564 392.05 599.594 383.952 594.457V594.457Z" fill="url(#paint0_linear)"/>
<path d="M468.668 613.438C455.691 608.841 441.566 606.267 426.902 606.133C422.636 606.093 418.379 605.561 414.387 604.274C406.01 601.573 397.943 597.603 390.385 592.465H390.384C358.86 571.038 320.086 571.038 288.563 592.465C282.743 596.421 276.618 599.678 270.285 602.203L314.455 649.407H463.217C482.813 649.407 487.269 620.026 468.668 613.438Z" fill="url(#paint1_linear)"/>
<path d="M189.947 464.196C189.947 443.628 203.224 426.395 221.064 421.866C225.832 420.655 230.391 424.621 230.391 429.89V498.502C230.391 503.771 225.832 507.736 221.064 506.526C203.223 501.997 189.947 484.764 189.947 464.196V464.196Z" fill="url(#paint2_linear)"/>
<path d="M489.07 464.196C489.07 443.628 475.793 426.395 457.953 421.866C453.185 420.655 448.626 424.621 448.626 429.89V498.502C448.626 503.771 453.185 507.736 457.953 506.526C475.794 501.997 489.07 484.764 489.07 464.196V464.196Z" fill="url(#paint3_linear)"/>
<path d="M489.069 464.197C489.069 484.764 475.796 501.994 457.957 506.524C453.186 507.733 448.628 503.773 448.628 498.498V495.063C448.967 495.192 449.313 495.298 449.674 495.367C453.511 496.127 457.201 493.406 457.915 489.279L468.233 429.493C468.318 429.021 468.354 428.558 468.354 428.094C468.354 427.395 468.262 426.711 468.092 426.057C480.595 433.46 489.069 447.764 489.069 464.197V464.197Z" fill="url(#paint4_linear)"/>
<path d="M339.509 601.255C280.538 601.255 230.968 572.529 224.338 509.515L217.808 447.438C209.59 369.331 266.413 300.922 339.509 300.922C412.605 300.922 469.427 369.331 461.21 447.439L454.679 509.516C448.049 572.529 398.479 601.255 339.509 601.255V601.255Z" fill="url(#paint5_linear)"/>
<path d="M304.328 459.348C299.449 459.348 295.493 455.094 295.493 449.847C295.493 444.911 291.758 440.895 287.168 440.895C282.578 440.895 278.844 444.911 278.844 449.847C278.844 455.094 274.888 459.348 270.009 459.348C265.131 459.348 261.175 455.094 261.175 449.847C261.175 434.434 272.836 421.894 287.168 421.894C301.501 421.894 313.162 434.434 313.162 449.847C313.162 455.094 309.206 459.348 304.328 459.348Z" fill="url(#paint6_linear)"/>
<path d="M409.008 459.348C404.129 459.348 400.173 455.094 400.173 449.847C400.173 444.911 396.439 440.895 391.849 440.895C387.258 440.895 383.524 444.911 383.524 449.847C383.524 455.094 379.569 459.348 374.69 459.348C369.811 459.348 365.855 455.094 365.855 449.847C365.855 434.434 377.516 421.894 391.849 421.894C406.181 421.894 417.842 434.434 417.842 449.847C417.842 455.094 413.887 459.348 409.008 459.348Z" fill="url(#paint7_linear)"/>
<path d="M219.357 423.037L285.852 494.546H219.357V423.037Z" fill="url(#paint8_linear)"/>
<path d="M346.031 518.635H332.986C322.113 518.635 313.882 508.069 315.786 496.558L323.265 432.411H355.752L363.231 496.558C365.135 508.069 356.903 518.635 346.031 518.635Z" fill="url(#paint9_linear)"/>
<path d="M408.145 301.597C399.948 310.411 395.344 322.366 395.344 334.831V346.145C395.344 365.855 402.624 384.756 415.584 398.694L436.134 420.792C441.242 426.285 448.17 429.371 455.394 429.371C470.436 429.371 482.63 416.257 482.63 400.081V366.943C482.63 342.434 473.577 318.928 457.461 301.597C443.843 286.952 421.763 286.952 408.145 301.597V301.597Z" fill="url(#paint10_linear)"/>
<path d="M231.467 486.504L221.145 426.721C220.433 422.594 216.744 419.869 212.906 420.636C209.068 421.402 206.534 425.368 207.247 429.496L217.569 489.279C218.281 493.406 221.97 496.131 225.808 495.364C229.646 494.597 232.179 490.631 231.467 486.504Z" fill="url(#paint11_linear)"/>
<path d="M447.55 486.504L457.872 426.721C458.585 422.594 462.273 419.869 466.112 420.636C469.95 421.402 472.483 425.368 471.77 429.496L461.448 489.279C460.736 493.406 457.047 496.131 453.209 495.364C449.371 494.597 446.837 490.631 447.55 486.504Z" fill="url(#paint12_linear)"/>
<path d="M461.894 491.749L459.795 511.693C458.409 524.91 455.208 537.474 450.479 549.118C443.447 566.47 433.022 581.785 420.152 594.143C420.117 594.176 420.083 594.21 420.048 594.242C413.717 600.31 405.662 603.869 397.212 604.646C358.789 608.181 320.23 608.182 281.811 604.647C273.343 603.868 265.275 600.288 258.932 594.203C246.033 581.832 235.586 566.504 228.538 549.117C223.81 537.473 220.608 524.909 219.223 511.692L217.194 492.424C217.196 492.421 217.198 492.419 217.2 492.416C228.898 490.285 249.368 488.481 261.127 487.013C272.535 485.584 283.511 482.331 293.505 477.451H293.512C321.995 463.565 357.023 463.565 385.506 477.451L385.513 477.459C395.506 482.331 406.483 485.584 417.89 487.013C428.393 488.328 449.235 489.902 461.894 491.749V491.749Z" fill="url(#paint13_linear)"/>
<path d="M434.346 512.974C420.547 512.127 407.261 510.195 395.168 507.301H395.167C360.703 499.055 318.313 499.055 283.849 507.301C271.756 510.195 258.471 512.127 244.671 512.974C236.298 513.488 227.934 514.084 219.578 514.736C221.113 526.84 224.174 538.372 228.537 549.118C235.585 566.505 246.032 581.834 258.931 594.205C259.731 594.973 260.56 595.7 261.412 596.387C313.4 599.012 365.623 599.012 417.611 596.387C418.448 595.711 419.261 594.997 420.048 594.244C420.082 594.211 420.116 594.178 420.151 594.145C433.021 581.786 443.446 566.471 450.479 549.119C454.842 538.373 457.903 526.841 459.438 514.737C451.082 514.084 442.719 513.488 434.346 512.974V512.974Z" fill="url(#paint14_linear)"/>
<path d="M434.346 536.61C420.547 536.308 407.261 535.618 395.168 534.584H395.167C360.703 531.639 318.313 531.639 283.849 534.584C271.756 535.618 258.471 536.308 244.671 536.61C237.879 536.759 231.096 536.934 224.316 537.118C225.545 541.214 226.953 545.219 228.537 549.118C230.902 554.951 233.657 560.546 236.751 565.881C305.077 567.506 373.939 567.506 442.266 565.881C445.36 560.545 448.115 554.95 450.479 549.118C452.062 545.219 453.47 541.213 454.7 537.118C447.921 536.934 441.138 536.759 434.346 536.61Z" fill="url(#paint15_linear)"/>
<path d="M455.913 486.807C443.918 484.675 431.897 482.876 419.857 481.407C408.166 479.98 396.911 476.725 386.665 471.85H386.664C357.466 457.96 321.552 457.96 292.353 471.85C282.107 476.725 270.852 479.98 259.161 481.407C247.121 482.876 235.1 484.675 223.104 486.807C218.191 487.68 214.687 491.287 214.687 495.448C214.687 498.56 214.94 501.541 215.245 504.002C215.661 507.361 219.333 509.709 223.257 509.144C234.766 507.489 249.263 506.058 259.161 504.85C270.852 503.423 282.107 500.168 292.353 495.294C321.552 481.404 357.466 481.404 386.664 495.294H386.665C396.911 500.168 408.166 503.423 419.857 504.85C429.755 506.058 444.251 507.489 455.76 509.144C459.684 509.709 463.356 507.36 463.772 504.002C464.077 501.541 464.331 498.56 464.331 495.448C464.331 491.287 460.826 487.68 455.913 486.807V486.807Z" fill="url(#paint16_linear)"/>
<path d="M317.575 482.218C331.798 479.068 347.219 479.068 361.443 482.218C365.531 483.123 369.52 480.504 369.52 476.919V474.748C369.52 472.347 367.681 470.219 364.977 469.51C348.632 465.221 330.385 465.221 314.041 469.51C311.337 470.219 309.498 472.346 309.498 474.748V476.919C309.497 480.504 313.487 483.123 317.575 482.218V482.218Z" fill="url(#paint17_linear)"/>
<path d="M228.575 549.207C235.623 566.557 246.055 581.854 258.932 594.204C265.275 600.288 273.343 603.868 281.811 604.647C320.23 608.182 358.788 608.182 397.212 604.647C405.661 603.869 413.717 600.31 420.048 594.243C420.083 594.21 420.117 594.177 420.152 594.144C433 581.807 443.41 566.522 450.442 549.207H228.575V549.207Z" fill="url(#paint18_linear)"/>
<path d="M210.841 415.447C227.917 433.81 255.602 433.81 272.677 415.447C294.978 391.466 325.223 377.993 356.761 377.993C362.724 377.993 368.442 380.54 372.659 385.074C381.439 394.516 395.673 394.516 404.453 385.074L408.055 381.201C427.858 359.905 427.858 325.377 408.055 304.081C382.869 276.995 348.708 261.779 313.089 261.779C279.756 261.779 247.789 276.018 224.219 301.365C212.142 314.352 191.919 311.605 183.224 295.797C180.69 291.191 174.123 293.123 174.123 298.474V320.119C174.123 355.874 187.331 390.164 210.841 415.447Z" fill="url(#paint19_linear)"/>
</g>
<path d="M672 261.991C672 296.18 652.863 327.473 623.386 350.652C594.294 373.831 553.952 388.898 508.958 391.504H173.042C83.0514 386.58 10 330.66 10 261.991C10 253.877 18.5323 247.504 29.3945 247.504H108.266C140.462 247.504 166.449 228.09 166.449 204.043V175.069C166.449 128.131 200.971 84.3798 256.829 61.4893C262.258 59.1723 268.466 58.8826 273.896 60.621C279.325 62.3595 283.593 66.1261 285.144 70.4732C291.737 89.3054 315.013 102.634 341 102.634C366.987 102.634 390.263 89.3054 396.856 70.4732C398.407 66.1261 402.676 62.3595 408.104 60.621C413.534 58.8826 419.742 59.1723 425.171 61.4893C481.029 84.3798 515.551 128.131 515.551 175.069V204.043C515.551 228.09 541.538 247.504 573.734 247.504H652.605C663.468 247.504 672 253.877 672 261.991Z" fill="url(#paint20_linear)"/>
<path d="M672 261.991C672 296.181 652.863 327.473 623.386 350.652C594.294 373.831 553.952 388.898 508.958 391.504H341V102.634C366.987 102.634 390.263 89.3045 396.856 70.4722C398.407 66.1252 402.676 62.3585 408.104 60.6201C413.534 58.8816 419.742 59.1714 425.171 61.4883C481.029 84.3798 515.551 128.131 515.551 175.069V204.043C515.551 228.09 541.538 247.504 573.734 247.504H652.605C663.468 247.504 672 253.877 672 261.991Z" fill="#19CFFC"/>
<path d="M393.364 251.849C401.122 257.354 401.122 266.626 393.364 272.131C385.994 277.926 373.584 277.926 366.213 272.131L341 253.588L315.786 272.131C308.416 277.926 296.006 277.926 288.635 272.131C280.877 266.626 280.877 257.354 288.635 251.849L313.458 233.017L288.635 214.183C280.877 208.678 280.877 199.406 288.635 193.901C296.005 188.107 308.415 188.107 315.786 193.901L341 212.444L366.214 193.901C373.584 188.107 385.994 188.107 393.365 193.901C401.123 199.406 401.123 208.678 393.365 214.183L368.542 233.017L393.364 251.849Z" fill="#49696D"/>
<path d="M393.364 251.849C401.122 257.354 401.122 266.626 393.364 272.131C385.994 277.926 373.584 277.926 366.213 272.131L341 253.588V212.445L366.214 193.902C373.584 188.108 385.994 188.108 393.365 193.902C401.123 199.407 401.123 208.679 393.365 214.184L368.542 233.018L393.364 251.849Z" fill="#E9336D"/>
<path d="M508.958 391.504L476.762 439.023C474.046 443.079 469.004 445.977 462.798 446.847C456.59 447.425 450.385 446.267 445.73 442.791L405.002 412.078C387.935 399.329 364.272 392.954 340.999 392.954C317.725 392.954 294.063 399.329 276.995 412.078L236.267 442.791C231.612 445.978 225.407 447.425 219.2 446.847C212.995 445.977 207.952 443.08 205.236 439.023L173.039 391.505L194.761 375.28C233.938 346.016 285.917 330.08 340.997 330.08C396.078 330.08 448.055 346.016 487.233 375.28L508.958 391.504Z" fill="#E9336D"/>
<path d="M508.958 391.504L476.762 439.023C474.046 443.079 469.004 445.977 462.798 446.847C456.59 447.425 450.385 446.266 445.73 442.791L405.002 412.078C387.935 399.329 364.272 392.954 340.999 392.954V330.081C396.078 330.081 448.057 346.017 487.235 375.281L508.958 391.504Z" fill="#B12E65"/>
<g filter="url(#filter1_d)">
<rect x="118.937" y="614.312" width="443.195" height="83.6879" rx="39" fill="#F0C419"/>
</g>
<g filter="url(#filter2_d)">
<path d="M175.892 684H164.732C163.82 684 163.148 683.808 162.716 683.424C162.332 682.992 162.14 682.32 162.14 681.408V634.752C162.14 633.84 162.332 633.192 162.716 632.808C163.148 632.376 163.82 632.16 164.732 632.16H186.764C193.292 632.16 197.756 633.456 200.156 636.048C202.556 638.64 203.756 642.024 203.756 646.2V655.416C203.756 659.592 202.556 662.976 200.156 665.568C197.756 668.16 193.292 669.456 186.764 669.456H178.484V681.408C178.484 682.32 178.268 682.992 177.836 683.424C177.452 683.808 176.804 684 175.892 684ZM178.34 645.624V656.496H184.82C186.212 656.496 187.124 656.136 187.556 655.416C187.988 654.696 188.204 653.88 188.204 652.968V649.152C188.204 648.24 187.988 647.424 187.556 646.704C187.124 645.984 186.212 645.624 184.82 645.624H178.34ZM228.127 684C227.215 684 226.543 683.808 226.111 683.424C225.727 682.992 225.535 682.32 225.535 681.408V672.84C225.535 671.928 225.727 671.28 226.111 670.896C226.543 670.464 227.215 670.248 228.127 670.248H235.255V646.056H228.127C227.215 646.056 226.543 645.864 226.111 645.48C225.727 645.048 225.535 644.376 225.535 643.464V634.752C225.535 633.84 225.727 633.192 226.111 632.808C226.543 632.376 227.215 632.16 228.127 632.16H258.799C259.711 632.16 260.359 632.376 260.743 632.808C261.175 633.192 261.391 633.84 261.391 634.752V643.464C261.391 644.376 261.175 645.048 260.743 645.48C260.359 645.864 259.711 646.056 258.799 646.056H251.815V670.248H258.799C259.711 670.248 260.359 670.464 260.743 670.896C261.175 671.28 261.391 671.928 261.391 672.84V681.408C261.391 682.32 261.175 682.992 260.743 683.424C260.359 683.808 259.711 684 258.799 684H228.127ZM302.724 645.12V654.336H308.124C309.372 654.336 310.212 654.024 310.644 653.4C311.076 652.728 311.292 651.912 311.292 650.952V648.504C311.292 647.544 311.076 646.752 310.644 646.128C310.212 645.456 309.372 645.12 308.124 645.12H302.724ZM300.132 684H289.044C288.132 684 287.46 683.808 287.028 683.424C286.644 682.992 286.452 682.32 286.452 681.408V634.752C286.452 633.84 286.644 633.192 287.028 632.808C287.46 632.376 288.132 632.16 289.044 632.16H313.02C318.396 632.16 322.092 633.288 324.108 635.544C326.172 637.752 327.204 640.632 327.204 644.184V647.496C327.204 649.512 326.892 651.24 326.268 652.68C325.692 654.072 324.66 655.08 323.172 655.704C325.764 655.992 327.852 657.048 329.436 658.872C331.068 660.696 331.884 663.12 331.884 666.144V681.408C331.884 682.32 331.668 682.992 331.236 683.424C330.852 683.808 330.204 684 329.292 684H318.132C317.22 684 316.548 683.808 316.116 683.424C315.732 682.992 315.54 682.32 315.54 681.408V670.392C315.54 669.336 315.324 668.568 314.892 668.088C314.508 667.56 313.812 667.296 312.804 667.296H302.724V681.408C302.724 682.32 302.508 682.992 302.076 683.424C301.692 683.808 301.044 684 300.132 684ZM374.573 647.28L371.189 658.224H382.493L379.109 647.28C378.917 646.848 378.701 646.536 378.461 646.344C378.269 646.152 378.029 646.056 377.741 646.056H375.941C375.653 646.056 375.389 646.152 375.149 646.344C374.957 646.536 374.765 646.848 374.573 647.28ZM370.469 681.408C370.469 682.32 370.253 682.992 369.82 683.424C369.437 683.808 368.789 684 367.877 684H357.293C356.381 684 355.709 683.808 355.277 683.424C354.893 682.992 354.701 682.32 354.701 681.408V662.4C354.701 660.96 354.917 659.304 355.349 657.432C355.829 655.56 356.549 653.376 357.509 650.88L363.773 634.536C364.061 633.72 364.493 633.12 365.069 632.736C365.693 632.352 366.485 632.16 367.445 632.16H386.812C387.725 632.16 388.469 632.352 389.045 632.736C389.669 633.12 390.125 633.72 390.413 634.536L396.677 650.88C397.637 653.376 398.333 655.56 398.765 657.432C399.245 659.304 399.485 660.96 399.485 662.4V681.408C399.485 682.32 399.269 682.992 398.837 683.424C398.453 683.808 397.805 684 396.893 684H386.021C385.061 684 384.341 683.808 383.861 683.424C383.429 682.992 383.213 682.32 383.213 681.408V671.328H370.469V681.408ZM447.971 684H436.307C435.395 684 434.723 683.808 434.291 683.424C433.907 682.992 433.715 682.32 433.715 681.408V646.056H423.131C422.219 646.056 421.547 645.864 421.115 645.48C420.731 645.048 420.539 644.376 420.539 643.464V634.752C420.539 633.84 420.731 633.192 421.115 632.808C421.547 632.376 422.219 632.16 423.131 632.16H461.147C462.059 632.16 462.707 632.376 463.091 632.808C463.523 633.192 463.739 633.84 463.739 634.752V643.464C463.739 644.376 463.523 645.048 463.091 645.48C462.707 645.864 462.059 646.056 461.147 646.056H450.563V681.408C450.563 682.32 450.347 682.992 449.915 683.424C449.531 683.808 448.883 684 447.971 684ZM522.21 684H488.802C487.89 684 487.218 683.808 486.786 683.424C486.402 682.992 486.21 682.32 486.21 681.408V634.752C486.21 633.84 486.402 633.192 486.786 632.808C487.218 632.376 487.89 632.16 488.802 632.16H522.21C523.122 632.16 523.77 632.376 524.154 632.808C524.586 633.192 524.802 633.84 524.802 634.752V643.176C524.802 644.088 524.586 644.76 524.154 645.192C523.77 645.576 523.122 645.768 522.21 645.768H502.338V651.312H516.378C517.29 651.312 517.938 651.528 518.322 651.96C518.754 652.344 518.97 652.992 518.97 653.904V661.608C518.97 662.52 518.754 663.192 518.322 663.624C517.938 664.008 517.29 664.2 516.378 664.2H502.338V670.392H522.21C523.122 670.392 523.77 670.608 524.154 671.04C524.586 671.424 524.802 672.072 524.802 672.984V681.408C524.802 682.32 524.586 682.992 524.154 683.424C523.77 683.808 523.122 684 522.21 684Z" fill="#E9336D"/>
<path d="M162.716 683.424L161.968 684.088L162.008 684.132L162.052 684.171L162.716 683.424ZM162.716 632.808L162.009 632.101L162.009 632.101L162.716 632.808ZM200.156 636.048L199.422 636.727L199.422 636.727L200.156 636.048ZM200.156 665.568L199.422 664.889L199.422 664.889L200.156 665.568ZM178.484 669.456V668.456H177.484V669.456H178.484ZM177.836 683.424L177.129 682.717L177.129 682.717L177.836 683.424ZM178.34 645.624V644.624H177.34V645.624H178.34ZM178.34 656.496H177.34V657.496H178.34V656.496ZM187.556 655.416L188.413 655.93L188.413 655.93L187.556 655.416ZM187.556 646.704L186.698 647.218L186.698 647.218L187.556 646.704ZM175.892 683H164.732V685H175.892V683ZM164.732 683C163.93 683 163.549 682.826 163.38 682.677L162.052 684.171C162.747 684.79 163.71 685 164.732 685V683ZM163.463 682.76C163.313 682.591 163.14 682.21 163.14 681.408H161.14C161.14 682.43 161.35 683.393 161.968 684.088L163.463 682.76ZM163.14 681.408V634.752H161.14V681.408H163.14ZM163.14 634.752C163.14 633.935 163.32 633.618 163.423 633.515L162.009 632.101C161.344 632.766 161.14 633.745 161.14 634.752H163.14ZM163.423 633.515C163.592 633.346 163.956 633.16 164.732 633.16V631.16C163.684 631.16 162.703 631.406 162.009 632.101L163.423 633.515ZM164.732 633.16H186.764V631.16H164.732V633.16ZM186.764 633.16C193.229 633.16 197.32 634.457 199.422 636.727L200.89 635.369C198.192 632.455 193.355 631.16 186.764 631.16V633.16ZM199.422 636.727C201.62 639.102 202.756 642.227 202.756 646.2H204.756C204.756 641.821 203.491 638.178 200.89 635.369L199.422 636.727ZM202.756 646.2V655.416H204.756V646.2H202.756ZM202.756 655.416C202.756 659.389 201.62 662.514 199.422 664.889L200.89 666.247C203.491 663.438 204.756 659.795 204.756 655.416H202.756ZM199.422 664.889C197.32 667.159 193.229 668.456 186.764 668.456V670.456C193.355 670.456 198.192 669.161 200.89 666.247L199.422 664.889ZM186.764 668.456H178.484V670.456H186.764V668.456ZM177.484 669.456V681.408H179.484V669.456H177.484ZM177.484 681.408C177.484 682.184 177.298 682.547 177.129 682.717L178.543 684.131C179.238 683.437 179.484 682.456 179.484 681.408H177.484ZM177.129 682.717C177.025 682.82 176.708 683 175.892 683V685C176.899 685 177.878 684.796 178.543 684.131L177.129 682.717ZM177.34 645.624V656.496H179.34V645.624H177.34ZM178.34 657.496H184.82V655.496H178.34V657.496ZM184.82 657.496C186.324 657.496 187.705 657.112 188.413 655.93L186.698 654.902C186.543 655.16 186.099 655.496 184.82 655.496V657.496ZM188.413 655.93C188.947 655.042 189.204 654.045 189.204 652.968H187.204C187.204 653.715 187.029 654.35 186.698 654.902L188.413 655.93ZM189.204 652.968V649.152H187.204V652.968H189.204ZM189.204 649.152C189.204 648.075 188.947 647.078 188.413 646.19L186.698 647.218C187.029 647.77 187.204 648.405 187.204 649.152H189.204ZM188.413 646.19C187.705 645.008 186.324 644.624 184.82 644.624V646.624C186.099 646.624 186.543 646.96 186.698 647.218L188.413 646.19ZM184.82 644.624H178.34V646.624H184.82V644.624ZM226.111 683.424L225.363 684.088L225.402 684.132L225.446 684.171L226.111 683.424ZM226.111 670.896L226.818 671.603L226.818 671.603L226.111 670.896ZM235.255 670.248V671.248H236.255V670.248H235.255ZM235.255 646.056H236.255V645.056H235.255V646.056ZM226.111 645.48L225.363 646.144L225.402 646.188L225.446 646.227L226.111 645.48ZM226.111 632.808L225.404 632.101L225.404 632.101L226.111 632.808ZM260.743 632.808L259.995 633.472L260.034 633.516L260.078 633.555L260.743 632.808ZM260.743 645.48L261.45 646.187L261.45 646.187L260.743 645.48ZM251.815 646.056V645.056H250.815V646.056H251.815ZM251.815 670.248H250.815V671.248H251.815V670.248ZM260.743 670.896L259.995 671.56L260.034 671.604L260.078 671.643L260.743 670.896ZM260.743 683.424L261.45 684.131L261.45 684.131L260.743 683.424ZM228.127 683C227.325 683 226.944 682.826 226.775 682.677L225.446 684.171C226.142 684.79 227.105 685 228.127 685V683ZM226.858 682.76C226.708 682.591 226.535 682.21 226.535 681.408H224.535C224.535 682.43 224.745 683.393 225.363 684.088L226.858 682.76ZM226.535 681.408V672.84H224.535V681.408H226.535ZM226.535 672.84C226.535 672.023 226.715 671.706 226.818 671.603L225.404 670.189C224.739 670.854 224.535 671.833 224.535 672.84H226.535ZM226.818 671.603C226.987 671.434 227.351 671.248 228.127 671.248V669.248C227.079 669.248 226.098 669.494 225.404 670.189L226.818 671.603ZM228.127 671.248H235.255V669.248H228.127V671.248ZM236.255 670.248V646.056H234.255V670.248H236.255ZM235.255 645.056H228.127V647.056H235.255V645.056ZM228.127 645.056C227.325 645.056 226.944 644.882 226.775 644.733L225.446 646.227C226.142 646.846 227.105 647.056 228.127 647.056V645.056ZM226.858 644.816C226.708 644.647 226.535 644.266 226.535 643.464H224.535C224.535 644.486 224.745 645.449 225.363 646.144L226.858 644.816ZM226.535 643.464V634.752H224.535V643.464H226.535ZM226.535 634.752C226.535 633.935 226.715 633.618 226.818 633.515L225.404 632.101C224.739 632.766 224.535 633.745 224.535 634.752H226.535ZM226.818 633.515C226.987 633.346 227.351 633.16 228.127 633.16V631.16C227.079 631.16 226.098 631.406 225.404 632.101L226.818 633.515ZM228.127 633.16H258.799V631.16H228.127V633.16ZM258.799 633.16C259.588 633.16 259.887 633.351 259.995 633.472L261.49 632.144C260.83 631.401 259.834 631.16 258.799 631.16V633.16ZM260.078 633.555C260.2 633.663 260.391 633.963 260.391 634.752H262.391C262.391 633.717 262.15 632.721 261.407 632.061L260.078 633.555ZM260.391 634.752V643.464H262.391V634.752H260.391ZM260.391 643.464C260.391 644.24 260.205 644.603 260.036 644.773L261.45 646.187C262.144 645.493 262.391 644.512 262.391 643.464H260.391ZM260.036 644.773C259.932 644.876 259.615 645.056 258.799 645.056V647.056C259.806 647.056 260.785 646.852 261.45 646.187L260.036 644.773ZM258.799 645.056H251.815V647.056H258.799V645.056ZM250.815 646.056V670.248H252.815V646.056H250.815ZM251.815 671.248H258.799V669.248H251.815V671.248ZM258.799 671.248C259.588 671.248 259.887 671.439 259.995 671.56L261.49 670.232C260.83 669.489 259.834 669.248 258.799 669.248V671.248ZM260.078 671.643C260.2 671.751 260.391 672.051 260.391 672.84H262.391C262.391 671.805 262.15 670.809 261.407 670.149L260.078 671.643ZM260.391 672.84V681.408H262.391V672.84H260.391ZM260.391 681.408C260.391 682.184 260.205 682.547 260.036 682.717L261.45 684.131C262.144 683.437 262.391 682.456 262.391 681.408H260.391ZM260.036 682.717C259.932 682.82 259.615 683 258.799 683V685C259.806 685 260.785 684.796 261.45 684.131L260.036 682.717ZM258.799 683H228.127V685H258.799V683ZM302.724 645.12V644.12H301.724V645.12H302.724ZM302.724 654.336H301.724V655.336H302.724V654.336ZM310.644 653.4L311.467 653.969L311.476 653.955L311.486 653.941L310.644 653.4ZM310.644 646.128L309.803 646.669L309.812 646.683L309.822 646.697L310.644 646.128ZM287.028 683.424L286.281 684.088L286.32 684.132L286.364 684.171L287.028 683.424ZM287.028 632.808L286.321 632.101L286.321 632.101L287.028 632.808ZM324.108 635.544L323.363 636.21L323.37 636.219L323.378 636.227L324.108 635.544ZM326.268 652.68L325.351 652.282L325.348 652.29L325.344 652.298L326.268 652.68ZM323.172 655.704L322.786 654.782L319.231 656.272L323.062 656.698L323.172 655.704ZM329.436 658.872L328.681 659.528L328.686 659.533L328.691 659.539L329.436 658.872ZM331.236 683.424L331.943 684.131L331.943 684.131L331.236 683.424ZM316.116 683.424L315.369 684.088L315.408 684.132L315.452 684.171L316.116 683.424ZM314.892 668.088L314.084 668.676L314.114 668.718L314.149 668.757L314.892 668.088ZM302.724 667.296V666.296H301.724V667.296H302.724ZM302.076 683.424L301.369 682.717L301.369 682.717L302.076 683.424ZM301.724 645.12V654.336H303.724V645.12H301.724ZM302.724 655.336H308.124V653.336H302.724V655.336ZM308.124 655.336C309.487 655.336 310.752 655.001 311.467 653.969L309.822 652.831C309.672 653.047 309.258 653.336 308.124 653.336V655.336ZM311.486 653.941C312.041 653.077 312.292 652.065 312.292 650.952H310.292C310.292 651.759 310.112 652.379 309.803 652.859L311.486 653.941ZM312.292 650.952V648.504H310.292V650.952H312.292ZM312.292 648.504C312.292 647.395 312.042 646.39 311.467 645.559L309.822 646.697C310.111 647.114 310.292 647.693 310.292 648.504H312.292ZM311.486 645.587C310.783 644.494 309.512 644.12 308.124 644.12V646.12C309.233 646.12 309.642 646.418 309.803 646.669L311.486 645.587ZM308.124 644.12H302.724V646.12H308.124V644.12ZM300.132 683H289.044V685H300.132V683ZM289.044 683C288.243 683 287.861 682.826 287.693 682.677L286.364 684.171C287.059 684.79 288.022 685 289.044 685V683ZM287.776 682.76C287.626 682.591 287.452 682.21 287.452 681.408H285.452C285.452 682.43 285.663 683.393 286.281 684.088L287.776 682.76ZM287.452 681.408V634.752H285.452V681.408H287.452ZM287.452 634.752C287.452 633.935 287.632 633.618 287.735 633.515L286.321 632.101C285.657 632.766 285.452 633.745 285.452 634.752H287.452ZM287.735 633.515C287.905 633.346 288.268 633.16 289.044 633.16V631.16C287.997 631.16 287.016 631.406 286.321 632.101L287.735 633.515ZM289.044 633.16H313.02V631.16H289.044V633.16ZM313.02 633.16C318.318 633.16 321.64 634.283 323.363 636.21L324.854 634.878C322.544 632.293 318.474 631.16 313.02 631.16V633.16ZM323.378 636.227C325.239 638.218 326.204 640.838 326.204 644.184H328.204C328.204 640.426 327.106 637.286 324.839 634.861L323.378 636.227ZM326.204 644.184V647.496H328.204V644.184H326.204ZM326.204 647.496C326.204 649.413 325.907 650.998 325.351 652.282L327.186 653.078C327.877 651.482 328.204 649.611 328.204 647.496H326.204ZM325.344 652.298C324.877 653.427 324.049 654.252 322.786 654.782L323.559 656.626C325.271 655.908 326.508 654.717 327.192 653.062L325.344 652.298ZM323.062 656.698C325.426 656.961 327.276 657.909 328.681 659.528L330.191 658.216C328.429 656.187 326.103 655.023 323.283 654.71L323.062 656.698ZM328.691 659.539C330.123 661.139 330.884 663.306 330.884 666.144H332.884C332.884 662.934 332.014 660.253 330.182 658.205L328.691 659.539ZM330.884 666.144V681.408H332.884V666.144H330.884ZM330.884 681.408C330.884 682.184 330.699 682.547 330.529 682.717L331.943 684.131C332.638 683.437 332.884 682.456 332.884 681.408H330.884ZM330.529 682.717C330.426 682.82 330.109 683 329.292 683V685C330.3 685 331.279 684.796 331.943 684.131L330.529 682.717ZM329.292 683H318.132V685H329.292V683ZM318.132 683C317.331 683 316.949 682.826 316.781 682.677L315.452 684.171C316.147 684.79 317.11 685 318.132 685V683ZM316.864 682.76C316.714 682.591 316.54 682.21 316.54 681.408H314.54C314.54 682.43 314.751 683.393 315.369 684.088L316.864 682.76ZM316.54 681.408V670.392H314.54V681.408H316.54ZM316.54 670.392C316.54 669.236 316.31 668.169 315.636 667.419L314.149 668.757C314.338 668.967 314.54 669.436 314.54 670.392H316.54ZM315.701 667.5C315.044 666.596 313.953 666.296 312.804 666.296V668.296C313.672 668.296 313.973 668.524 314.084 668.676L315.701 667.5ZM312.804 666.296H302.724V668.296H312.804V666.296ZM301.724 667.296V681.408H303.724V667.296H301.724ZM301.724 681.408C301.724 682.184 301.539 682.547 301.369 682.717L302.783 684.131C303.478 683.437 303.724 682.456 303.724 681.408H301.724ZM301.369 682.717C301.266 682.82 300.949 683 300.132 683V685C301.14 685 302.119 684.796 302.783 684.131L301.369 682.717ZM374.573 647.28L373.659 646.874L373.635 646.928L373.617 646.985L374.573 647.28ZM371.189 658.224L370.233 657.929L369.833 659.224H371.189V658.224ZM382.493 658.224V659.224H383.848L383.448 657.929L382.493 658.224ZM379.109 647.28L380.064 646.985L380.046 646.928L380.022 646.874L379.109 647.28ZM378.461 646.344L377.753 647.051L377.793 647.09L377.836 647.125L378.461 646.344ZM375.149 646.344L374.524 645.563L374.481 645.598L374.441 645.637L375.149 646.344ZM369.82 683.424L369.113 682.717L369.113 682.717L369.82 683.424ZM355.277 683.424L354.529 684.088L354.568 684.132L354.612 684.171L355.277 683.424ZM355.349 657.432L354.38 657.184L354.377 657.195L354.374 657.207L355.349 657.432ZM357.509 650.88L358.442 651.239L358.442 651.238L357.509 650.88ZM363.773 634.536L364.706 634.894L364.711 634.881L364.715 634.869L363.773 634.536ZM365.069 632.736L364.544 631.884L364.529 631.894L364.514 631.904L365.069 632.736ZM389.045 632.736L388.49 633.568L388.505 633.578L388.52 633.588L389.045 632.736ZM390.413 634.536L389.47 634.869L389.474 634.881L389.479 634.894L390.413 634.536ZM396.677 650.88L395.743 651.238L395.743 651.239L396.677 650.88ZM398.765 657.432L397.79 657.657L397.793 657.669L397.796 657.68L398.765 657.432ZM398.837 683.424L399.544 684.131L399.544 684.131L398.837 683.424ZM383.861 683.424L383.153 684.131L383.193 684.17L383.236 684.205L383.861 683.424ZM383.213 671.328H384.213V670.328H383.213V671.328ZM370.469 671.328V670.328H369.469V671.328H370.469ZM373.617 646.985L370.233 657.929L372.144 658.519L375.528 647.575L373.617 646.985ZM371.189 659.224H382.493V657.224H371.189V659.224ZM383.448 657.929L380.064 646.985L378.153 647.575L381.537 658.519L383.448 657.929ZM380.022 646.874C379.797 646.367 379.5 645.895 379.085 645.563L377.836 647.125C377.901 647.177 378.036 647.329 378.195 647.686L380.022 646.874ZM379.168 645.637C378.776 645.245 378.276 645.056 377.741 645.056V647.056C377.757 647.056 377.766 647.057 377.769 647.058C377.771 647.058 377.77 647.058 377.765 647.056C377.761 647.055 377.756 647.052 377.753 647.05C377.75 647.048 377.75 647.048 377.753 647.051L379.168 645.637ZM377.741 645.056H375.941V647.056H377.741V645.056ZM375.941 645.056C375.41 645.056 374.928 645.24 374.524 645.563L375.773 647.125C375.849 647.064 375.895 647.056 375.941 647.056V645.056ZM374.441 645.637C374.121 645.957 373.869 646.4 373.659 646.874L375.486 647.686C375.66 647.296 375.792 647.115 375.856 647.051L374.441 645.637ZM369.469 681.408C369.469 682.184 369.283 682.547 369.113 682.717L370.528 684.131C371.222 683.437 371.469 682.456 371.469 681.408H369.469ZM369.113 682.717C369.01 682.82 368.693 683 367.877 683V685C368.884 685 369.863 684.796 370.528 684.131L369.113 682.717ZM367.877 683H357.293V685H367.877V683ZM357.293 683C356.491 683 356.109 682.826 355.941 682.677L354.612 684.171C355.308 684.79 356.27 685 357.293 685V683ZM356.024 682.76C355.874 682.591 355.701 682.21 355.701 681.408H353.701C353.701 682.43 353.911 683.393 354.529 684.088L356.024 682.76ZM355.701 681.408V662.4H353.701V681.408H355.701ZM355.701 662.4C355.701 661.056 355.903 659.478 356.323 657.657L354.374 657.207C353.93 659.13 353.701 660.864 353.701 662.4H355.701ZM356.317 657.68C356.785 655.857 357.491 653.711 358.442 651.239L356.575 650.521C355.606 653.041 354.872 655.263 354.38 657.184L356.317 657.68ZM358.442 651.238L364.706 634.894L362.839 634.178L356.575 650.522L358.442 651.238ZM364.715 634.869C364.95 634.205 365.268 633.805 365.623 633.568L364.514 631.904C363.717 632.435 363.171 633.235 362.83 634.203L364.715 634.869ZM365.593 633.588C366.017 633.326 366.613 633.16 367.445 633.16V631.16C366.356 631.16 365.368 631.378 364.544 631.884L365.593 633.588ZM367.445 633.16H386.812V631.16H367.445V633.16ZM386.812 633.16C387.589 633.16 388.123 633.323 388.49 633.568L389.599 631.904C388.814 631.381 387.86 631.16 386.812 631.16V633.16ZM388.52 633.588C388.916 633.831 389.243 634.228 389.47 634.869L391.355 634.203C391.006 633.212 390.421 632.409 389.569 631.884L388.52 633.588ZM389.479 634.894L395.743 651.238L397.61 650.522L391.346 634.178L389.479 634.894ZM395.743 651.239C396.692 653.707 397.372 655.844 397.79 657.657L399.739 657.207C399.293 655.276 398.581 653.045 397.61 650.521L395.743 651.239ZM397.796 657.68C398.262 659.497 398.485 661.067 398.485 662.4H400.485C400.485 660.853 400.227 659.111 399.733 657.184L397.796 657.68ZM398.485 662.4V681.408H400.485V662.4H398.485ZM398.485 681.408C398.485 682.184 398.299 682.547 398.129 682.717L399.544 684.131C400.238 683.437 400.485 682.456 400.485 681.408H398.485ZM398.129 682.717C398.026 682.82 397.709 683 396.893 683V685C397.9 685 398.879 684.796 399.544 684.131L398.129 682.717ZM396.893 683H386.021V685H396.893V683ZM386.021 683C385.167 683 384.713 682.825 384.485 682.643L383.236 684.205C383.968 684.791 384.954 685 386.021 685V683ZM384.568 682.717C384.398 682.547 384.213 682.184 384.213 681.408H382.213C382.213 682.456 382.459 683.437 383.153 684.131L384.568 682.717ZM384.213 681.408V671.328H382.213V681.408H384.213ZM383.213 670.328H370.469V672.328H383.213V670.328ZM369.469 671.328V681.408H371.469V671.328H369.469ZM434.291 683.424L433.544 684.088L433.583 684.132L433.627 684.171L434.291 683.424ZM433.715 646.056H434.715V645.056H433.715V646.056ZM421.115 645.48L420.368 646.144L420.407 646.188L420.451 646.227L421.115 645.48ZM421.115 632.808L420.408 632.101L420.408 632.101L421.115 632.808ZM463.091 632.808L462.344 633.472L462.383 633.516L462.427 633.555L463.091 632.808ZM450.563 646.056V645.056H449.563V646.056H450.563ZM449.915 683.424L449.208 682.717L449.208 682.717L449.915 683.424ZM447.971 683H436.307V685H447.971V683ZM436.307 683C435.506 683 435.124 682.826 434.956 682.677L433.627 684.171C434.323 684.79 435.285 685 436.307 685V683ZM435.039 682.76C434.889 682.591 434.715 682.21 434.715 681.408H432.715C432.715 682.43 432.926 683.393 433.544 684.088L435.039 682.76ZM434.715 681.408V646.056H432.715V681.408H434.715ZM433.715 645.056H423.131V647.056H433.715V645.056ZM423.131 645.056C422.33 645.056 421.948 644.882 421.78 644.733L420.451 646.227C421.147 646.846 422.109 647.056 423.131 647.056V645.056ZM421.863 644.816C421.713 644.647 421.539 644.266 421.539 643.464H419.539C419.539 644.486 419.75 645.449 420.368 646.144L421.863 644.816ZM421.539 643.464V634.752H419.539V643.464H421.539ZM421.539 634.752C421.539 633.935 421.719 633.618 421.823 633.515L420.408 632.101C419.744 632.766 419.539 633.745 419.539 634.752H421.539ZM421.823 633.515C421.992 633.346 422.355 633.16 423.131 633.16V631.16C422.084 631.16 421.103 631.406 420.408 632.101L421.823 633.515ZM423.131 633.16H461.147V631.16H423.131V633.16ZM461.147 633.16C461.937 633.16 462.236 633.351 462.344 633.472L463.839 632.144C463.179 631.401 462.182 631.16 461.147 631.16V633.16ZM462.427 633.555C462.548 633.663 462.739 633.963 462.739 634.752H464.739C464.739 633.717 464.498 632.721 463.756 632.061L462.427 633.555ZM462.739 634.752V643.464H464.739V634.752H462.739ZM462.739 643.464C462.739 644.24 462.554 644.603 462.384 644.773L463.799 646.187C464.493 645.493 464.739 644.512 464.739 643.464H462.739ZM462.384 644.773C462.281 644.876 461.964 645.056 461.147 645.056V647.056C462.155 647.056 463.134 646.852 463.799 646.187L462.384 644.773ZM461.147 645.056H450.563V647.056H461.147V645.056ZM449.563 646.056V681.408H451.563V646.056H449.563ZM449.563 681.408C449.563 682.184 449.378 682.547 449.208 682.717L450.623 684.131C451.317 683.437 451.563 682.456 451.563 681.408H449.563ZM449.208 682.717C449.105 682.82 448.788 683 447.971 683V685C448.979 685 449.958 684.796 450.623 684.131L449.208 682.717ZM486.786 683.424L486.039 684.088L486.078 684.132L486.122 684.171L486.786 683.424ZM486.786 632.808L486.079 632.101L486.079 632.101L486.786 632.808ZM524.154 632.808L523.407 633.472L523.446 633.516L523.49 633.555L524.154 632.808ZM502.338 645.768V644.768H501.338V645.768H502.338ZM502.338 651.312H501.338V652.312H502.338V651.312ZM518.322 651.96L517.575 652.624L517.614 652.668L517.658 652.707L518.322 651.96ZM502.338 664.2V663.2H501.338V664.2H502.338ZM502.338 670.392H501.338V671.392H502.338V670.392ZM524.154 671.04L523.407 671.704L523.446 671.748L523.49 671.787L524.154 671.04ZM524.154 683.424L524.861 684.131L524.861 684.131L524.154 683.424ZM522.21 683H488.802V685H522.21V683ZM488.802 683C488 683 487.619 682.826 487.451 682.677L486.122 684.171C486.817 684.79 487.78 685 488.802 685V683ZM487.534 682.76C487.384 682.591 487.21 682.21 487.21 681.408H485.21C485.21 682.43 485.421 683.393 486.039 684.088L487.534 682.76ZM487.21 681.408V634.752H485.21V681.408H487.21ZM487.21 634.752C487.21 633.935 487.39 633.618 487.493 633.515L486.079 632.101C485.414 632.766 485.21 633.745 485.21 634.752H487.21ZM487.493 633.515C487.663 633.346 488.026 633.16 488.802 633.16V631.16C487.754 631.16 486.774 631.406 486.079 632.101L487.493 633.515ZM488.802 633.16H522.21V631.16H488.802V633.16ZM522.21 633.16C522.999 633.16 523.299 633.351 523.407 633.472L524.902 632.144C524.241 631.401 523.245 631.16 522.21 631.16V633.16ZM523.49 633.555C523.611 633.663 523.802 633.963 523.802 634.752H525.802C525.802 633.717 525.561 632.721 524.819 632.061L523.49 633.555ZM523.802 634.752V643.176H525.802V634.752H523.802ZM523.802 643.176C523.802 643.952 523.616 644.315 523.447 644.485L524.861 645.899C525.556 645.205 525.802 644.224 525.802 643.176H523.802ZM523.447 644.485C523.344 644.588 523.027 644.768 522.21 644.768V646.768C523.218 646.768 524.197 646.564 524.861 645.899L523.447 644.485ZM522.21 644.768H502.338V646.768H522.21V644.768ZM501.338 645.768V651.312H503.338V645.768H501.338ZM502.338 652.312H516.378V650.312H502.338V652.312ZM516.378 652.312C517.167 652.312 517.467 652.503 517.575 652.624L519.07 651.296C518.409 650.553 517.413 650.312 516.378 650.312V652.312ZM517.658 652.707C517.779 652.815 517.97 653.115 517.97 653.904H519.97C519.97 652.869 519.729 651.873 518.987 651.213L517.658 652.707ZM517.97 653.904V661.608H519.97V653.904H517.97ZM517.97 661.608C517.97 662.384 517.784 662.747 517.615 662.917L519.029 664.331C519.724 663.637 519.97 662.656 519.97 661.608H517.97ZM517.615 662.917C517.512 663.02 517.195 663.2 516.378 663.2V665.2C517.386 665.2 518.365 664.996 519.029 664.331L517.615 662.917ZM516.378 663.2H502.338V665.2H516.378V663.2ZM501.338 664.2V670.392H503.338V664.2H501.338ZM502.338 671.392H522.21V669.392H502.338V671.392ZM522.21 671.392C522.999 671.392 523.299 671.583 523.407 671.704L524.902 670.376C524.241 669.633 523.245 669.392 522.21 669.392V671.392ZM523.49 671.787C523.611 671.895 523.802 672.195 523.802 672.984H525.802C525.802 671.949 525.561 670.953 524.819 670.293L523.49 671.787ZM523.802 672.984V681.408H525.802V672.984H523.802ZM523.802 681.408C523.802 682.184 523.616 682.547 523.447 682.717L524.861 684.131C525.556 683.437 525.802 682.456 525.802 681.408H523.802ZM523.447 682.717C523.344 682.82 523.027 683 522.21 683V685C523.218 685 524.197 684.796 524.861 684.131L523.447 682.717Z" fill="#FFC2B7"/>
</g>
</g>
<defs>
<filter id="filter0_d" x="0" y="0" width="682" height="712" filterUnits="userSpaceOnUse" color-interpolation-filters="sRGB">
<feFlood flood-opacity="0" result="BackgroundImageFix"/>
<feColorMatrix in="SourceAlpha" type="matrix" values="0 0 0 0 0 0 0 0 0 0 0 0 0 0 0 0 0 0 127 0"/>
<feOffset dy="4"/>
<feGaussianBlur stdDeviation="5"/>
<feColorMatrix type="matrix" values="0 0 0 0 0 0 0 0 0 0 0 0 0 0 0 0 0 0 0.25 0"/>
<feBlend mode="normal" in2="BackgroundImageFix" result="effect1_dropShadow"/>
<feBlend mode="normal" in="SourceGraphic" in2="effect1_dropShadow" result="shape"/>
</filter>
<filter id="filter1_d" x="108.937" y="608.312" width="463.195" height="103.688" filterUnits="userSpaceOnUse" color-interpolation-filters="sRGB">
<feFlood flood-opacity="0" result="BackgroundImageFix"/>
<feColorMatrix in="SourceAlpha" type="matrix" values="0 0 0 0 0 0 0 0 0 0 0 0 0 0 0 0 0 0 127 0"/>
<feOffset dy="4"/>
<feGaussianBlur stdDeviation="5"/>
<feColorMatrix type="matrix" values="0 0 0 0 0 0 0 0 0 0 0 0 0 0 0 0 0 0 0.5 0"/>
<feBlend mode="normal" in2="BackgroundImageFix" result="effect1_dropShadow"/>
<feBlend mode="normal" in="SourceGraphic" in2="effect1_dropShadow" result="shape"/>
</filter>
<filter id="filter2_d" x="151.14" y="625.16" width="384.662" height="73.84" filterUnits="userSpaceOnUse" color-interpolation-filters="sRGB">
<feFlood flood-opacity="0" result="BackgroundImageFix"/>
<feColorMatrix in="SourceAlpha" type="matrix" values="0 0 0 0 0 0 0 0 0 0 0 0 0 0 0 0 0 0 127 0"/>
<feOffset dy="4"/>
<feGaussianBlur stdDeviation="5"/>
<feColorMatrix type="matrix" values="0 0 0 0 0 0 0 0 0 0 0 0 0 0 0 0 0 0 0.27 0"/>
<feBlend mode="normal" in2="BackgroundImageFix" result="effect1_dropShadow"/>
<feBlend mode="normal" in="SourceGraphic" in2="effect1_dropShadow" result="shape"/>
</filter>
<linearGradient id="paint0_linear" x1="314.628" y1="621.129" x2="314.628" y2="652.921" gradientUnits="userSpaceOnUse">
<stop stop-color="#18CEFB"/>
<stop offset="0.8231" stop-color="#0590FC"/>
<stop offset="1" stop-color="#0182FC"/>
</linearGradient>
<linearGradient id="paint1_linear" x1="375.394" y1="656.218" x2="375.394" y2="576.745" gradientUnits="userSpaceOnUse">
<stop stop-color="#0182FC" stop-opacity="0"/>
<stop offset="1" stop-color="#0268B4"/>
</linearGradient>
<linearGradient id="paint2_linear" x1="201.848" y1="445.392" x2="236.737" y2="477.836" gradientUnits="userSpaceOnUse">
<stop stop-color="#FFDCBD"/>
<stop offset="1" stop-color="#FFA9B1"/>
</linearGradient>
<linearGradient id="paint3_linear" x1="477.169" y1="445.392" x2="442.28" y2="477.836" gradientUnits="userSpaceOnUse">
<stop stop-color="#FFDCBD"/>
<stop offset="1" stop-color="#FFA9B1"/>
</linearGradient>
<linearGradient id="paint4_linear" x1="479.185" y1="468.649" x2="463.605" y2="466.893" gradientUnits="userSpaceOnUse">
<stop stop-color="#FFC2B5" stop-opacity="0"/>
<stop offset="1" stop-color="#F89580"/>
</linearGradient>
<linearGradient id="paint5_linear" x1="217.016" y1="451.089" x2="462.001" y2="451.089" gradientUnits="userSpaceOnUse">
<stop stop-color="#FFDCBD"/>
<stop offset="1" stop-color="#FFA9B1"/>
</linearGradient>
<linearGradient id="paint6_linear" x1="261.174" y1="440.621" x2="313.162" y2="440.621" gradientUnits="userSpaceOnUse">
<stop stop-color="#537983"/>
<stop offset="1" stop-color="#3E5959"/>
</linearGradient>
<linearGradient id="paint7_linear" x1="365.855" y1="440.621" x2="417.842" y2="440.621" gradientUnits="userSpaceOnUse">
<stop stop-color="#537983"/>
<stop offset="1" stop-color="#3E5959"/>
</linearGradient>
<linearGradient id="paint8_linear" x1="258.423" y1="457.145" x2="217.781" y2="467.091" gradientUnits="userSpaceOnUse">
<stop stop-color="#FFC2B5" stop-opacity="0"/>
<stop offset="1" stop-color="#F89580"/>
</linearGradient>
<linearGradient id="paint9_linear" x1="339.509" y1="435.451" x2="339.509" y2="511.461" gradientUnits="userSpaceOnUse">
<stop stop-color="#FFC2B5" stop-opacity="0"/>
<stop offset="1" stop-color="#F89580"/>
</linearGradient>
<linearGradient id="paint10_linear" x1="384.801" y1="294.524" x2="470.282" y2="374.013" gradientUnits="userSpaceOnUse">
<stop stop-color="#537983"/>
<stop offset="1" stop-color="#3E5959"/>
</linearGradient>
<linearGradient id="paint11_linear" x1="207.754" y1="458" x2="224.352" y2="458" gradientUnits="userSpaceOnUse">
<stop stop-color="#EDF5FF"/>
<stop offset="1" stop-color="#C7E9FF"/>
</linearGradient>
<linearGradient id="paint12_linear" x1="454.183" y1="458" x2="475.469" y2="458" gradientUnits="userSpaceOnUse">
<stop stop-color="#EDF5FF"/>
<stop offset="1" stop-color="#C7E9FF"/>
</linearGradient>
<linearGradient id="paint13_linear" x1="324.85" y1="477.185" x2="420.508" y2="653.74" gradientUnits="userSpaceOnUse">
<stop stop-color="#9CF8D2"/>
<stop offset="0.4165" stop-color="#5ECCB2"/>
<stop offset="1" stop-color="#008B81"/>
</linearGradient>
<linearGradient id="paint14_linear" x1="298.514" y1="480.887" x2="434.217" y2="624.63" gradientUnits="userSpaceOnUse">
<stop stop-color="#5DE1C4" stop-opacity="0"/>
<stop offset="1" stop-color="#037E73"/>
</linearGradient>
<linearGradient id="paint15_linear" x1="336.283" y1="562.625" x2="345.52" y2="499.466" gradientUnits="userSpaceOnUse">
<stop stop-color="#5DE1C4" stop-opacity="0"/>
<stop offset="1" stop-color="#037E73"/>
</linearGradient>
<linearGradient id="paint16_linear" x1="339.509" y1="472.211" x2="339.509" y2="503.732" gradientUnits="userSpaceOnUse">
<stop stop-color="#EDF5FF"/>
<stop offset="1" stop-color="#C7E9FF"/>
</linearGradient>
<linearGradient id="paint17_linear" x1="339.509" y1="480.316" x2="339.509" y2="465.762" gradientUnits="userSpaceOnUse">
<stop stop-color="#EDF5FF"/>
<stop offset="1" stop-color="#C7E9FF"/>
</linearGradient>
<linearGradient id="paint18_linear" x1="339.509" y1="567.954" x2="339.509" y2="608.141" gradientUnits="userSpaceOnUse">
<stop stop-color="#5DE1C4" stop-opacity="0"/>
<stop offset="1" stop-color="#037E73"/>
</linearGradient>
<linearGradient id="paint19_linear" x1="251.114" y1="297.032" x2="362.008" y2="400.152" gradientUnits="userSpaceOnUse">
<stop stop-color="#537983"/>
<stop offset="1" stop-color="#3E5959"/>
</linearGradient>
<linearGradient id="paint20_linear" x1="10" y1="245.945" x2="671.992" y2="254.201" gradientUnits="userSpaceOnUse">
<stop stop-color="#6FFFDB"/>
<stop offset="1" stop-color="#0DA4F0" stop-opacity="0.98"/>
</linearGradient>
<clipPath id="clip0">
<rect width="394.853" height="387.628" fill="white" transform="translate(143.919 261.779)"/>
</clipPath>
</defs>
</svg>
